<?xml version="1.0" encoding="UTF-8"?>
<!DOCTYPE svg PUBLIC "-//W3C//DTD SVG 1.1//EN" "http://www.w3.org/Graphics/SVG/1.1/DTD/svg11.dtd">
<!-- Creator: CorelDRAW 2021 (64-Bit) -->
<svg xmlns="http://www.w3.org/2000/svg" xml:space="preserve" width="1299px" height="1240px" version="1.1" style="shape-rendering:geometricPrecision; text-rendering:geometricPrecision; image-rendering:optimizeQuality; fill-rule:evenodd; clip-rule:evenodd"
viewBox="0 0 1299 1239.95"
 xmlns:xlink="http://www.w3.org/1999/xlink"
 xmlns:xodm="http://www.corel.com/coreldraw/odm/2003">
 <defs>
  <style type="text/css">
   <![CDATA[
    .fil7 {fill:#FEFEFE;fill-rule:nonzero}
    .fil103 {fill:#EE4899;fill-rule:nonzero}
    .fil102 {fill:#EA9A63;fill-rule:nonzero}
    .fil0 {fill:url(#id0)}
    .fil83 {fill:url(#id1)}
    .fil3 {fill:url(#id2)}
    .fil1 {fill:url(#id3)}
    .fil84 {fill:url(#id4)}
    .fil18 {fill:url(#id5)}
    .fil68 {fill:url(#id6)}
    .fil60 {fill:url(#id7)}
    .fil43 {fill:url(#id8)}
    .fil26 {fill:url(#id9)}
    .fil15 {fill:url(#id10)}
    .fil20 {fill:url(#id11)}
    .fil9 {fill:url(#id12)}
    .fil72 {fill:url(#id13)}
    .fil77 {fill:url(#id14)}
    .fil52 {fill:url(#id15)}
    .fil57 {fill:url(#id16)}
    .fil8 {fill:url(#id17)}
    .fil46 {fill:url(#id18)}
    .fil38 {fill:url(#id19)}
    .fil73 {fill:url(#id20)}
    .fil89 {fill:url(#id21)}
    .fil99 {fill:url(#id22)}
    .fil98 {fill:url(#id23)}
    .fil16 {fill:url(#id24)}
    .fil11 {fill:url(#id25)}
    .fil45 {fill:url(#id26)}
    .fil88 {fill:url(#id27)}
    .fil50 {fill:url(#id28)}
    .fil42 {fill:url(#id29)}
    .fil10 {fill:url(#id30)}
    .fil28 {fill:url(#id31)}
    .fil95 {fill:url(#id32)}
    .fil81 {fill:url(#id33)}
    .fil91 {fill:url(#id34)}
    .fil92 {fill:url(#id35)}
    .fil47 {fill:url(#id36)}
    .fil24 {fill:url(#id37)}
    .fil13 {fill:url(#id38)}
    .fil35 {fill:url(#id39)}
    .fil4 {fill:url(#id40)}
    .fil69 {fill:url(#id41)}
    .fil66 {fill:url(#id42)}
    .fil49 {fill:url(#id43)}
    .fil54 {fill:url(#id44)}
    .fil53 {fill:url(#id45)}
    .fil2 {fill:url(#id46)}
    .fil93 {fill:url(#id47)}
    .fil67 {fill:url(#id48)}
    .fil82 {fill:url(#id49)}
    .fil48 {fill:url(#id50)}
    .fil65 {fill:url(#id51)}
    .fil32 {fill:url(#id52)}
    .fil79 {fill:url(#id53)}
    .fil80 {fill:url(#id54)}
    .fil94 {fill:url(#id55)}
    .fil44 {fill:url(#id56)}
    .fil78 {fill:url(#id57)}
    .fil40 {fill:url(#id58)}
    .fil17 {fill:url(#id59)}
    .fil101 {fill:url(#id60)}
    .fil75 {fill:url(#id61)}
    .fil34 {fill:url(#id62)}
    .fil33 {fill:url(#id63)}
    .fil39 {fill:url(#id64)}
    .fil100 {fill:url(#id65)}
    .fil61 {fill:url(#id66)}
    .fil56 {fill:url(#id67)}
    .fil5 {fill:url(#id68)}
    .fil36 {fill:url(#id69)}
    .fil63 {fill:url(#id70)}
    .fil12 {fill:url(#id71)}
    .fil55 {fill:url(#id72)}
    .fil85 {fill:url(#id73)}
    .fil96 {fill:url(#id74)}
    .fil90 {fill:url(#id75)}
    .fil25 {fill:url(#id76)}
    .fil51 {fill:url(#id77)}
    .fil86 {fill:url(#id78)}
    .fil21 {fill:url(#id79)}
    .fil76 {fill:url(#id80)}
    .fil27 {fill:url(#id81)}
    .fil41 {fill:url(#id82)}
    .fil19 {fill:url(#id83)}
    .fil30 {fill:url(#id84)}
    .fil31 {fill:url(#id85)}
    .fil59 {fill:url(#id86)}
    .fil29 {fill:url(#id87)}
    .fil87 {fill:url(#id88)}
    .fil6 {fill:url(#id89)}
    .fil70 {fill:url(#id90)}
    .fil74 {fill:url(#id91)}
    .fil64 {fill:url(#id92)}
    .fil71 {fill:url(#id93)}
    .fil58 {fill:url(#id94)}
    .fil37 {fill:url(#id95)}
    .fil62 {fill:url(#id96)}
    .fil97 {fill:url(#id97)}
    .fil14 {fill:url(#id98)}
    .fil23 {fill:url(#id99)}
    .fil22 {fill:url(#id100)}
   ]]>
  </style>
  <linearGradient id="id0" gradientUnits="userSpaceOnUse" x1="1033.83" y1="1189.49" x2="1167.34" y2="1189.49">
   <stop offset="0" style="stop-opacity:1; stop-color:#E49E6C"/>
   <stop offset="1" style="stop-opacity:1; stop-color:#E86590"/>
  </linearGradient>
  <linearGradient id="id1" gradientUnits="userSpaceOnUse" x1="526.99" y1="421.47" x2="1272.56" y2="421.47">
   <stop offset="0" style="stop-opacity:1; stop-color:#39366B"/>
   <stop offset="1" style="stop-opacity:1; stop-color:#3F3B7F"/>
  </linearGradient>
  <linearGradient id="id2" gradientUnits="userSpaceOnUse" xlink:href="#id0" x1="1.31" y1="884.94" x2="1216.93" y2="884.94">
  </linearGradient>
  <linearGradient id="id3" gradientUnits="userSpaceOnUse" xlink:href="#id0" x1="154.57" y1="478.16" x2="380.43" y2="478.16">
  </linearGradient>
  <linearGradient id="id4" gradientUnits="userSpaceOnUse" x1="527.86" y1="421.47" x2="1270.78" y2="421.47">
   <stop offset="0" style="stop-opacity:1; stop-color:#34315A"/>
   <stop offset="1" style="stop-opacity:1; stop-color:#363364"/>
  </linearGradient>
  <radialGradient id="id5" gradientUnits="userSpaceOnUse" gradientTransform="matrix(36.8831 -0 -0 -36.8846 -7092 19931)" cx="197.65" cy="526.09" r="24.73" fx="197.65" fy="526.09">
   <stop offset="0" style="stop-opacity:1; stop-color:#5F4756"/>
   <stop offset="0.470588" style="stop-opacity:1; stop-color:#4E3C81"/>
   <stop offset="0.729412" style="stop-opacity:1; stop-color:#3F3B7F"/>
   <stop offset="1" style="stop-opacity:1; stop-color:#39366B"/>
  </radialGradient>
  <radialGradient id="id6" gradientUnits="userSpaceOnUse" gradientTransform="matrix(36.8804 -0 -0 -36.8811 -7082 19930)" xlink:href="#id5" cx="197.38" cy="526.12" r="24.73" fx="197.38" fy="526.12">
  </radialGradient>
  <radialGradient id="id7" gradientUnits="userSpaceOnUse" gradientTransform="matrix(50.6902 -0 -0 -50.6885 -9808 27190)" xlink:href="#id5" cx="197.38" cy="526.03" r="18" fx="197.38" fy="526.03">
  </radialGradient>
  <radialGradient id="id8" gradientUnits="userSpaceOnUse" gradientTransform="matrix(36.8831 -0 -0 -36.8846 -7087 19927)" xlink:href="#id5" cx="197.49" cy="526" r="24.73" fx="197.49" fy="526">
  </radialGradient>
  <radialGradient id="id9" gradientUnits="userSpaceOnUse" gradientTransform="matrix(36.8839 -0 -0 -36.8846 -7081 19929)" xlink:href="#id5" cx="197.33" cy="526.04" r="24.73" fx="197.33" fy="526.04">
  </radialGradient>
  <radialGradient id="id10" gradientUnits="userSpaceOnUse" gradientTransform="matrix(36.8839 -0 -0 -36.8846 -7088 19928)" xlink:href="#id5" cx="197.53" cy="526.01" r="24.73" fx="197.53" fy="526.01">
  </radialGradient>
  <radialGradient id="id11" gradientUnits="userSpaceOnUse" gradientTransform="matrix(36.8804 -0 -0 -36.8811 -7088 19927)" xlink:href="#id5" cx="197.54" cy="526.04" r="24.73" fx="197.54" fy="526.04">
  </radialGradient>
  <radialGradient id="id12" gradientUnits="userSpaceOnUse" gradientTransform="matrix(34.2197 -0 -0 -34.221 -6565 18530)" xlink:href="#id5" cx="197.63" cy="526.11" r="26.66" fx="197.63" fy="526.11">
  </radialGradient>
  <radialGradient id="id13" gradientUnits="userSpaceOnUse" gradientTransform="matrix(20.5044 -0 -0 -20.5049 -3850 11317)" xlink:href="#id5" cx="197.4" cy="526.26" r="44.49" fx="197.4" fy="526.26">
  </radialGradient>
  <radialGradient id="id14" gradientUnits="userSpaceOnUse" gradientTransform="matrix(10.5236 -0 -0 -10.5238 -1873 6064)" xlink:href="#id5" cx="196.7" cy="526.17" r="86.68" fx="196.7" fy="526.17">
  </radialGradient>
  <radialGradient id="id15" gradientUnits="userSpaceOnUse" gradientTransform="matrix(36.8804 -0 -0 -36.8811 -7078 19927)" xlink:href="#id5" cx="197.27" cy="526.04" r="24.73" fx="197.27" fy="526.04">
  </radialGradient>
  <radialGradient id="id16" gradientUnits="userSpaceOnUse" gradientTransform="matrix(50.6918 -0 -0 -50.6918 -9811 27192)" xlink:href="#id5" cx="197.43" cy="526.05" r="17.99" fx="197.43" fy="526.05">
  </radialGradient>
  <radialGradient id="id17" gradientUnits="userSpaceOnUse" gradientTransform="matrix(34.2182 -0 -0 -34.2195 -6567 18530)" xlink:href="#id5" cx="197.7" cy="526.14" r="26.66" fx="197.7" fy="526.14">
  </radialGradient>
  <radialGradient id="id18" gradientUnits="userSpaceOnUse" gradientTransform="matrix(36.8804 -0 -0 -36.8826 -7089 19929)" xlink:href="#id5" cx="197.58" cy="526.08" r="24.73" fx="197.58" fy="526.08">
  </radialGradient>
  <radialGradient id="id19" gradientUnits="userSpaceOnUse" gradientTransform="matrix(36.8822 -0 -0 -36.8828 -7092 19930)" xlink:href="#id5" cx="197.64" cy="526.09" r="24.73" fx="197.64" fy="526.09">
  </radialGradient>
  <radialGradient id="id20" gradientUnits="userSpaceOnUse" gradientTransform="matrix(34.2205 -0 -0 -34.221 -6563 18527)" xlink:href="#id5" cx="197.55" cy="526.02" r="26.66" fx="197.55" fy="526.02">
  </radialGradient>
  <radialGradient id="id21" gradientUnits="userSpaceOnUse" gradientTransform="matrix(40.026 -0 -0 -40.0265 -8329 21213)" cx="213.42" cy="517.05" r="22.25" fx="213.42" fy="517.05">
   <stop offset="0" style="stop-opacity:1; stop-color:#90655D"/>
   <stop offset="0.470588" style="stop-opacity:1; stop-color:#6D489A"/>
   <stop offset="0.729412" style="stop-opacity:1; stop-color:#534598"/>
   <stop offset="1" style="stop-opacity:1; stop-color:#3E3D86"/>
  </radialGradient>
  <radialGradient id="id22" gradientUnits="userSpaceOnUse" gradientTransform="matrix(55.8425 -0 -0 -55.8432 -11788 29642)" xlink:href="#id21" cx="214.93" cy="521.48" r="15.8" fx="214.93" fy="521.48">
  </radialGradient>
  <radialGradient id="id23" gradientUnits="userSpaceOnUse" gradientTransform="matrix(43.8103 -0 -0 -43.8108 -9091 23398)" xlink:href="#id21" cx="212.35" cy="522.15" r="20.29" fx="212.35" fy="522.15">
  </radialGradient>
  <radialGradient id="id24" gradientUnits="userSpaceOnUse" gradientTransform="matrix(36.8804 -0 -0 -36.8811 -7093 19930)" xlink:href="#id5" cx="197.7" cy="526.13" r="24.73" fx="197.7" fy="526.13">
  </radialGradient>
  <radialGradient id="id25" gradientUnits="userSpaceOnUse" gradientTransform="matrix(36.8839 -0 -0 -36.8831 -7094 19930)" xlink:href="#id5" cx="197.68" cy="526.1" r="24.73" fx="197.68" fy="526.1">
  </radialGradient>
  <radialGradient id="id26" gradientUnits="userSpaceOnUse" gradientTransform="matrix(36.8822 -0 -0 -36.8828 -7083 19925)" xlink:href="#id5" cx="197.4" cy="525.96" r="24.73" fx="197.4" fy="525.96">
  </radialGradient>
  <radialGradient id="id27" gradientUnits="userSpaceOnUse" gradientTransform="matrix(53.6139 -0 -0 -53.6145 -11423 28020)" xlink:href="#id21" cx="217.11" cy="513.05" r="16.48" fx="217.11" fy="513.05">
  </radialGradient>
  <radialGradient id="id28" gradientUnits="userSpaceOnUse" gradientTransform="matrix(36.8831 -0 -0 -36.8846 -7083 19931)" xlink:href="#id5" cx="197.4" cy="526.1" r="24.73" fx="197.4" fy="526.1">
  </radialGradient>
  <radialGradient id="id29" gradientUnits="userSpaceOnUse" gradientTransform="matrix(36.8804 -0 -0 -36.8811 -7077 19932)" xlink:href="#id5" cx="197.24" cy="526.17" r="24.73" fx="197.24" fy="526.17">
  </radialGradient>
  <radialGradient id="id30" gradientUnits="userSpaceOnUse" gradientTransform="matrix(34.2182 -0 -0 -34.2195 -6562 18527)" xlink:href="#id5" cx="197.54" cy="526.04" r="26.66" fx="197.54" fy="526.04">
  </radialGradient>
  <radialGradient id="id31" gradientUnits="userSpaceOnUse" gradientTransform="matrix(36.8804 -0 -0 -36.8811 -7094 19925)" xlink:href="#id5" cx="197.71" cy="526" r="24.73" fx="197.71" fy="526">
  </radialGradient>
  <radialGradient id="id32" gradientUnits="userSpaceOnUse" gradientTransform="matrix(36.2734 -0 -0 -36.2734 -7431 19539)" xlink:href="#id21" cx="210.67" cy="524.19" r="24.61" fx="210.67" fy="524.19">
  </radialGradient>
  <radialGradient id="id33" gradientUnits="userSpaceOnUse" gradientTransform="matrix(45.8028 -0 -0 -45.8038 -8855 24628)" xlink:href="#id5" cx="197.63" cy="526.19" r="19.92" fx="197.63" fy="526.19">
  </radialGradient>
  <radialGradient id="id34" gradientUnits="userSpaceOnUse" gradientTransform="matrix(40.0322 -0 -0 -40.0337 -8274 21413)" xlink:href="#id21" cx="211.97" cy="521.85" r="22.25" fx="211.97" fy="521.85">
  </radialGradient>
  <radialGradient id="id35" gradientUnits="userSpaceOnUse" gradientTransform="matrix(73.2798 -0 -0 -73.2843 -16000 37771)" xlink:href="#id21" cx="221.36" cy="508.47" r="11.92" fx="221.36" fy="508.47">
  </radialGradient>
  <radialGradient id="id36" gradientUnits="userSpaceOnUse" gradientTransform="matrix(36.8839 -0 -0 -36.8861 -7082 19936)" xlink:href="#id5" cx="197.35" cy="526.2" r="24.73" fx="197.35" fy="526.2">
  </radialGradient>
  <radialGradient id="id37" gradientUnits="userSpaceOnUse" gradientTransform="matrix(28.2165 -0 -0 -28.2169 -5384 15375)" xlink:href="#id5" cx="197.8" cy="526.24" r="32.33" fx="197.8" fy="526.24">
  </radialGradient>
  <radialGradient id="id38" gradientUnits="userSpaceOnUse" gradientTransform="matrix(36.8804 -0 -0 -36.8811 -7089 19927)" xlink:href="#id5" cx="197.57" cy="526.05" r="24.73" fx="197.57" fy="526.05">
  </radialGradient>
  <radialGradient id="id39" gradientUnits="userSpaceOnUse" gradientTransform="matrix(27.4076 -0 -0 -27.4079 -5214 14944)" xlink:href="#id5" cx="197.44" cy="526.05" r="33.28" fx="197.44" fy="526.05">
  </radialGradient>
  <radialGradient id="id40" gradientUnits="userSpaceOnUse" gradientTransform="matrix(2.22556 -0 -0 -2.23364 -826 -45)" cx="673.91" cy="-14.07" r="416.47" fx="673.91" fy="-14.07">
   <stop offset="0" style="stop-opacity:1; stop-color:#E49E6C"/>
   <stop offset="0.470588" style="stop-opacity:1; stop-color:#875DA5"/>
   <stop offset="0.741176" style="stop-opacity:1; stop-color:#645AA5"/>
   <stop offset="0.8" style="stop-opacity:1; stop-color:#39386E"/>
   <stop offset="1" style="stop-opacity:1; stop-color:#39386E"/>
  </radialGradient>
  <radialGradient id="id41" gradientUnits="userSpaceOnUse" gradientTransform="matrix(36.8804 -0 -0 -36.8811 -7090 19924)" xlink:href="#id5" cx="197.59" cy="525.95" r="24.73" fx="197.59" fy="525.95">
  </radialGradient>
  <radialGradient id="id42" gradientUnits="userSpaceOnUse" gradientTransform="matrix(36.8831 -0 -0 -36.8846 -7087 19934)" xlink:href="#id5" cx="197.5" cy="526.16" r="24.73" fx="197.5" fy="526.16">
  </radialGradient>
  <radialGradient id="id43" gradientUnits="userSpaceOnUse" gradientTransform="matrix(36.8813 -0 -0 -36.8828 -7084 19931)" xlink:href="#id5" cx="197.43" cy="526.11" r="24.73" fx="197.43" fy="526.11">
  </radialGradient>
  <radialGradient id="id44" gradientUnits="userSpaceOnUse" gradientTransform="matrix(50.6902 -0 -0 -50.6885 -9807 27190)" xlink:href="#id5" cx="197.37" cy="526.03" r="18" fx="197.37" fy="526.03">
  </radialGradient>
  <radialGradient id="id45" gradientUnits="userSpaceOnUse" gradientTransform="matrix(50.6918 -0 -0 -50.6947 -9805 27191)" xlink:href="#id5" cx="197.32" cy="526" r="17.99" fx="197.32" fy="526">
  </radialGradient>
  <radialGradient id="id46" gradientUnits="userSpaceOnUse" gradientTransform="matrix(2.41297 -0 -0 -2.41297 -205 1299)" cx="144.9" cy="380.61" r="518.19" fx="144.9" fy="380.61">
   <stop offset="0" style="stop-opacity:1; stop-color:#322F57"/>
   <stop offset="0.231373" style="stop-opacity:1; stop-color:#312E53"/>
   <stop offset="1" style="stop-opacity:1; stop-color:#2D2D44"/>
  </radialGradient>
  <radialGradient id="id47" gradientUnits="userSpaceOnUse" gradientTransform="matrix(32.4965 -0 -0 -32.4965 -6571 17361)" xlink:href="#id21" cx="208.64" cy="518.28" r="27.53" fx="208.64" fy="518.28">
  </radialGradient>
  <radialGradient id="id48" gradientUnits="userSpaceOnUse" gradientTransform="matrix(36.8813 -0 -0 -36.8828 -7093 19926)" xlink:href="#id5" cx="197.69" cy="526" r="24.73" fx="197.69" fy="526">
  </radialGradient>
  <radialGradient id="id49" gradientUnits="userSpaceOnUse" gradientTransform="matrix(2.24133 -0 -0 -2.24134 -533 585)" cx="429.29" cy="180.51" r="415.12" fx="429.29" fy="180.51">
   <stop offset="0" style="stop-opacity:1; stop-color:#E49E6C"/>
   <stop offset="0.470588" style="stop-opacity:1; stop-color:#875DA5"/>
   <stop offset="0.729412" style="stop-opacity:1; stop-color:#645AA5"/>
   <stop offset="1" style="stop-opacity:1; stop-color:#514C9D"/>
  </radialGradient>
  <radialGradient id="id50" gradientUnits="userSpaceOnUse" gradientTransform="matrix(36.8831 -0 -0 -36.8846 -7089 19929)" xlink:href="#id5" cx="197.55" cy="526.03" r="24.73" fx="197.55" fy="526.03">
  </radialGradient>
  <radialGradient id="id51" gradientUnits="userSpaceOnUse" gradientTransform="matrix(36.8804 -0 -0 -36.8811 -7078 19927)" xlink:href="#id5" cx="197.26" cy="526.04" r="24.73" fx="197.26" fy="526.04">
  </radialGradient>
  <radialGradient id="id52" gradientUnits="userSpaceOnUse" gradientTransform="matrix(36.8831 -0 -0 -36.8861 -7090 19936)" xlink:href="#id5" cx="197.59" cy="526.2" r="24.73" fx="197.59" fy="526.2">
  </radialGradient>
  <radialGradient id="id53" gradientUnits="userSpaceOnUse" gradientTransform="matrix(45.8028 -0 -0 -45.8038 -8846 24622)" xlink:href="#id5" cx="197.43" cy="526.07" r="19.92" fx="197.43" fy="526.07">
  </radialGradient>
  <radialGradient id="id54" gradientUnits="userSpaceOnUse" gradientTransform="matrix(45.8028 -0 -0 -45.8038 -8850 24625)" xlink:href="#id5" cx="197.53" cy="526.13" r="19.92" fx="197.53" fy="526.13">
  </radialGradient>
  <radialGradient id="id55" gradientUnits="userSpaceOnUse" gradientTransform="matrix(73.2693 -0 -0 -73.2702 -16016 38133)" xlink:href="#id21" cx="221.61" cy="513.43" r="11.92" fx="221.61" fy="513.43">
  </radialGradient>
  <radialGradient id="id56" gradientUnits="userSpaceOnUse" gradientTransform="matrix(36.8839 -0 -0 -36.8846 -7095 19932)" xlink:href="#id5" cx="197.71" cy="526.13" r="24.73" fx="197.71" fy="526.13">
  </radialGradient>
  <radialGradient id="id57" gradientUnits="userSpaceOnUse" gradientTransform="matrix(45.8028 -0 -0 -45.8038 -8853 24627)" xlink:href="#id5" cx="197.6" cy="526.17" r="19.92" fx="197.6" fy="526.17">
  </radialGradient>
  <radialGradient id="id58" gradientUnits="userSpaceOnUse" gradientTransform="matrix(36.8839 -0 -0 -36.8846 -7082 19935)" xlink:href="#id5" cx="197.37" cy="526.22" r="24.73" fx="197.37" fy="526.22">
  </radialGradient>
  <radialGradient id="id59" gradientUnits="userSpaceOnUse" gradientTransform="matrix(36.8804 -0 -0 -36.8811 -7083 19924)" xlink:href="#id5" cx="197.41" cy="525.96" r="24.73" fx="197.41" fy="525.96">
  </radialGradient>
  <radialGradient id="id60" gradientUnits="userSpaceOnUse" gradientTransform="matrix(36.2759 -0 -0 -36.2751 -7415 19375)" xlink:href="#id21" cx="210.19" cy="519.78" r="24.61" fx="210.19" fy="519.78">
  </radialGradient>
  <radialGradient id="id61" gradientUnits="userSpaceOnUse" gradientTransform="matrix(27.8573 -0 -0 -27.8577 -5296 15181)" xlink:href="#id5" cx="197.2" cy="526.06" r="32.75" fx="197.2" fy="526.06">
  </radialGradient>
  <radialGradient id="id62" gradientUnits="userSpaceOnUse" gradientTransform="matrix(24.831 -0 -0 -24.8317 -4712 13584)" xlink:href="#id5" cx="197.71" cy="525.88" r="36.74" fx="197.71" fy="525.88">
  </radialGradient>
  <radialGradient id="id63" gradientUnits="userSpaceOnUse" gradientTransform="matrix(36.8831 -0 -0 -36.8861 -7080 19929)" xlink:href="#id5" cx="197.31" cy="526.03" r="24.73" fx="197.31" fy="526.03">
  </radialGradient>
  <radialGradient id="id64" gradientUnits="userSpaceOnUse" gradientTransform="matrix(36.8831 -0 -0 -36.8846 -7092 19931)" xlink:href="#id5" cx="197.64" cy="526.1" r="24.73" fx="197.64" fy="526.1">
  </radialGradient>
  <radialGradient id="id65" gradientUnits="userSpaceOnUse" gradientTransform="matrix(74.6032 -0 -0 -74.6079 -16717 39656)" xlink:href="#id21" cx="227.12" cy="524.5" r="11.69" fx="227.12" fy="524.5">
  </radialGradient>
  <radialGradient id="id66" gradientUnits="userSpaceOnUse" gradientTransform="matrix(50.6918 -0 -0 -50.6918 -9816 27196)" xlink:href="#id5" cx="197.54" cy="526.11" r="17.99" fx="197.54" fy="526.11">
  </radialGradient>
  <radialGradient id="id67" gradientUnits="userSpaceOnUse" gradientTransform="matrix(50.6902 -0 -0 -50.6885 -9821 27187)" xlink:href="#id5" cx="197.64" cy="525.98" r="18" fx="197.64" fy="525.98">
  </radialGradient>
  <radialGradient id="id68" gradientUnits="userSpaceOnUse" gradientTransform="matrix(1.96371 -0 -0 -1.96372 -100 2164)" cx="103.64" cy="730.3" r="518.01" fx="103.64" fy="730.3">
   <stop offset="0" style="stop-opacity:1; stop-color:#E49E6C"/>
   <stop offset="0.470588" style="stop-opacity:1; stop-color:#875DA5"/>
   <stop offset="0.678431" style="stop-opacity:1; stop-color:#645AA5"/>
   <stop offset="0.741176" style="stop-opacity:1; stop-color:#39386E"/>
   <stop offset="1" style="stop-opacity:1; stop-color:#39386E"/>
  </radialGradient>
  <radialGradient id="id69" gradientUnits="userSpaceOnUse" gradientTransform="matrix(36.8831 -0 -0 -36.8846 -7092 19931)" xlink:href="#id5" cx="197.65" cy="526.09" r="24.73" fx="197.65" fy="526.09">
  </radialGradient>
  <radialGradient id="id70" gradientUnits="userSpaceOnUse" gradientTransform="matrix(36.8804 -0 -0 -36.8811 -7081 19929)" xlink:href="#id5" cx="197.34" cy="526.09" r="24.73" fx="197.34" fy="526.09">
  </radialGradient>
  <radialGradient id="id71" gradientUnits="userSpaceOnUse" gradientTransform="matrix(36.8804 -0 -0 -36.8811 -7082 19923)" xlink:href="#id5" cx="197.37" cy="525.93" r="24.73" fx="197.37" fy="525.93">
  </radialGradient>
  <radialGradient id="id72" gradientUnits="userSpaceOnUse" gradientTransform="matrix(50.6902 -0 -0 -50.6914 -9814 27195)" xlink:href="#id5" cx="197.51" cy="526.1" r="18" fx="197.51" fy="526.1">
  </radialGradient>
  <radialGradient id="id73" gradientUnits="userSpaceOnUse" gradientTransform="matrix(4.70409 2.47731 2.47731 -4.70408 -271 -336)" cx="87.19" cy="-20.97" r="272.57" fx="87.19" fy="-20.97">
   <stop offset="0" style="stop-opacity:1; stop-color:#79585A"/>
   <stop offset="0.470588" style="stop-opacity:1; stop-color:#603E94"/>
   <stop offset="0.729412" style="stop-opacity:1; stop-color:#4B3E93"/>
   <stop offset="1" style="stop-opacity:1; stop-color:#3C3B7A"/>
  </radialGradient>
  <radialGradient id="id74" gradientUnits="userSpaceOnUse" gradientTransform="matrix(93.7714 -0 -0 -93.7783 -21105 48747)" xlink:href="#id21" cx="227.5" cy="514.33" r="9.19" fx="227.5" fy="514.33">
  </radialGradient>
  <radialGradient id="id75" gradientUnits="userSpaceOnUse" gradientTransform="matrix(53.6139 -0 -0 -53.6165 -11340 28354)" xlink:href="#id21" cx="215.53" cy="519.15" r="16.48" fx="215.53" fy="519.15">
  </radialGradient>
  <radialGradient id="id76" gradientUnits="userSpaceOnUse" gradientTransform="matrix(36.8839 -0 -0 -36.8846 -7091 19935)" xlink:href="#id5" cx="197.62" cy="526.21" r="24.73" fx="197.62" fy="526.21">
  </radialGradient>
  <radialGradient id="id77" gradientUnits="userSpaceOnUse" gradientTransform="matrix(36.8839 -0 -0 -36.8846 -7082 19930)" xlink:href="#id5" cx="197.35" cy="526.07" r="24.73" fx="197.35" fy="526.07">
  </radialGradient>
  <radialGradient id="id78" gradientUnits="userSpaceOnUse" gradientTransform="matrix(4.69376 2.47768 2.47768 -4.69376 -275 -338)" xlink:href="#id73" cx="88.45" cy="-20.95" r="272.53" fx="88.45" fy="-20.95">
  </radialGradient>
  <radialGradient id="id79" gradientUnits="userSpaceOnUse" gradientTransform="matrix(36.8804 -0 -0 -36.8811 -7082 19929)" xlink:href="#id5" cx="197.38" cy="526.09" r="24.73" fx="197.38" fy="526.09">
  </radialGradient>
  <radialGradient id="id80" gradientUnits="userSpaceOnUse" gradientTransform="matrix(32.914 -0 -0 -32.9133 -6301 17840)" xlink:href="#id5" cx="197.44" cy="526.05" r="27.71" fx="197.44" fy="526.05">
  </radialGradient>
  <radialGradient id="id81" gradientUnits="userSpaceOnUse" gradientTransform="matrix(36.8822 -0 -0 -36.8828 -7088 19933)" xlink:href="#id5" cx="197.52" cy="526.17" r="24.73" fx="197.52" fy="526.17">
  </radialGradient>
  <radialGradient id="id82" gradientUnits="userSpaceOnUse" gradientTransform="matrix(36.8839 -0 -0 -36.8846 -7090 19929)" xlink:href="#id5" cx="197.58" cy="526.05" r="24.73" fx="197.58" fy="526.05">
  </radialGradient>
  <radialGradient id="id83" gradientUnits="userSpaceOnUse" gradientTransform="matrix(36.8804 -0 -0 -36.8826 -7080 19934)" xlink:href="#id5" cx="197.33" cy="526.2" r="24.73" fx="197.33" fy="526.2">
  </radialGradient>
  <radialGradient id="id84" gradientUnits="userSpaceOnUse" gradientTransform="matrix(36.8831 -0 -0 -36.8846 -7093 19926)" xlink:href="#id5" cx="197.67" cy="525.95" r="24.73" fx="197.67" fy="525.95">
  </radialGradient>
  <radialGradient id="id85" gradientUnits="userSpaceOnUse" gradientTransform="matrix(36.8804 -0 -0 -36.8811 -7081 19928)" xlink:href="#id5" cx="197.34" cy="526.08" r="24.73" fx="197.34" fy="526.08">
  </radialGradient>
  <radialGradient id="id86" gradientUnits="userSpaceOnUse" gradientTransform="matrix(50.6918 -0 -0 -50.6947 -9821 27199)" xlink:href="#id5" cx="197.63" cy="526.15" r="17.99" fx="197.63" fy="526.15">
  </radialGradient>
  <radialGradient id="id87" gradientUnits="userSpaceOnUse" gradientTransform="matrix(36.8839 -0 -0 -36.8846 -7086 19932)" xlink:href="#id5" cx="197.47" cy="526.12" r="24.73" fx="197.47" fy="526.12">
  </radialGradient>
  <radialGradient id="id88" gradientUnits="userSpaceOnUse" gradientTransform="matrix(6.35362 -0 -0 -6.35367 -1053 3864)" xlink:href="#id21" cx="196.72" cy="525.4" r="143.57" fx="196.72" fy="525.4">
  </radialGradient>
  <radialGradient id="id89" gradientUnits="userSpaceOnUse" gradientTransform="matrix(1.76032 -0 -0 -1.76032 -150 1446)" xlink:href="#id49" cx="196.71" cy="523.97" r="518.19" fx="196.71" fy="523.97">
  </radialGradient>
  <radialGradient id="id90" gradientUnits="userSpaceOnUse" gradientTransform="matrix(36.8831 -0 -0 -36.8846 -7082 19930)" xlink:href="#id5" cx="197.35" cy="526.07" r="24.73" fx="197.35" fy="526.07">
  </radialGradient>
  <radialGradient id="id91" gradientUnits="userSpaceOnUse" gradientTransform="matrix(27.8573 -0 -0 -27.8568 -5301 15184)" xlink:href="#id5" cx="197.39" cy="526.17" r="32.75" fx="197.39" fy="526.17">
  </radialGradient>
  <radialGradient id="id92" gradientUnits="userSpaceOnUse" gradientTransform="matrix(36.8813 -0 -0 -36.8828 -7089 19934)" xlink:href="#id5" cx="197.56" cy="526.2" r="24.73" fx="197.56" fy="526.2">
  </radialGradient>
  <radialGradient id="id93" gradientUnits="userSpaceOnUse" gradientTransform="matrix(20.5028 -0 -0 -20.5032 -3847 11315)" xlink:href="#id5" cx="197.24" cy="526.19" r="44.49" fx="197.24" fy="526.19">
  </radialGradient>
  <radialGradient id="id94" gradientUnits="userSpaceOnUse" gradientTransform="matrix(50.6951 -0 -0 -50.6951 -9817 27196)" xlink:href="#id5" cx="197.54" cy="526.09" r="17.99" fx="197.54" fy="526.09">
  </radialGradient>
  <radialGradient id="id95" gradientUnits="userSpaceOnUse" gradientTransform="matrix(36.8804 -0 -0 -36.8811 -7091 19929)" xlink:href="#id5" cx="197.62" cy="526.09" r="24.73" fx="197.62" fy="526.09">
  </radialGradient>
  <radialGradient id="id96" gradientUnits="userSpaceOnUse" gradientTransform="matrix(36.8822 -0 -0 -36.8828 -7092 19925)" xlink:href="#id5" cx="197.65" cy="525.97" r="24.73" fx="197.65" fy="525.97">
  </radialGradient>
  <radialGradient id="id97" gradientUnits="userSpaceOnUse" gradientTransform="matrix(83.6338 -0 -0 -83.6338 -18483 43855)" xlink:href="#id21" cx="223.67" cy="518.18" r="10.37" fx="223.67" fy="518.18">
  </radialGradient>
  <radialGradient id="id98" gradientUnits="userSpaceOnUse" gradientTransform="matrix(36.8804 -0 -0 -36.8811 -7079 19932)" xlink:href="#id5" cx="197.28" cy="526.17" r="24.73" fx="197.28" fy="526.17">
  </radialGradient>
  <radialGradient id="id99" gradientUnits="userSpaceOnUse" gradientTransform="matrix(25.024 -0 -0 -25.0247 -4738 13690)" xlink:href="#id5" cx="197.2" cy="526.05" r="36.45" fx="197.2" fy="526.05">
  </radialGradient>
  <radialGradient id="id100" gradientUnits="userSpaceOnUse" gradientTransform="matrix(36.8839 -0 -0 -36.8846 -7095 19927)" xlink:href="#id5" cx="197.72" cy="525.98" r="24.73" fx="197.72" fy="525.98">
  </radialGradient>
 </defs>
 <g id="Layer_x0020_1">
  <metadata id="CorelCorpID_0Corel-Layer"/>
  <g id="_1759356502416">
   <path class="fil0" d="M1089.37 1219.26c6.92,3.98 15.51,3.99 22.43,0l48.89 -28.23c1.12,-0.65 1.23,-1.72 1.23,-2.15 0,-0.43 -0.11,-1.49 -1.23,-2.14l-48.9 -28.23c-6.91,-3.99 -15.5,-3.99 -22.42,0l-48.89 28.23c-1.12,0.65 -1.24,1.71 -1.24,2.14 0,0.43 0.12,1.5 1.24,2.15l48.89 28.23zm11.21 8.4c-4.81,0 -9.62,-1.24 -13.91,-3.72l-48.9 -28.23c-2.47,-1.42 -3.94,-3.97 -3.94,-6.83 0,-2.85 1.47,-5.4 3.94,-6.83l48.89 -28.23c8.59,-4.96 19.26,-4.96 27.84,0l48.9 28.23c2.47,1.43 3.94,3.98 3.94,6.83 0,2.86 -1.47,5.41 -3.94,6.83l-48.89 28.23c-4.3,2.48 -9.11,3.72 -13.93,3.72z"/>
   <path class="fil1" d="M267.5 417.78c-7.01,0 -14.02,1.81 -20.27,5.42l-84.14 48.58c-1.95,1.12 -3.1,3.13 -3.1,5.37 0,2.24 1.15,4.26 3.1,5.38l84.15 48.58c12.5,7.22 28.03,7.22 40.53,0l84.15 -48.58c1.94,-1.12 3.1,-3.14 3.1,-5.38 0,-2.24 -1.16,-4.25 -3.1,-5.37l-84.15 -48.58c-6.25,-3.61 -13.26,-5.42 -20.27,-5.42zm0.01 124.15c-7.95,0 -15.89,-2.04 -22.98,-6.14l-84.15 -48.58c-3.64,-2.1 -5.81,-5.85 -5.81,-10.06 0,-4.2 2.17,-7.96 5.81,-10.06l84.14 -48.58c14.18,-8.19 31.78,-8.19 45.96,0l84.14 48.58c3.64,2.1 5.82,5.86 5.82,10.06 0,4.21 -2.18,7.96 -5.82,10.07l-84.14 48.57c-7.08,4.1 -15.03,6.14 -22.97,6.14z"/>
   <path class="fil2" d="M706.69 1179.83l0 -0.01 -0.06 0c-1.29,-0.33 -2.53,-0.75 -3.69,-1.24l0 -0.01 -0.02 0c-0.28,-0.12 -0.55,-0.24 -0.81,-0.36l0 -0.06 -0.11 0c-0.25,-0.11 -0.49,-0.24 -0.72,-0.36l0 -0.05 -0.1 0c-0.17,-0.09 -0.32,-0.18 -0.48,-0.27l-0.26 -0.15 0 0 0 0 -69.99 -40.41 0 0 0 0 -40.41 -23.33 0 0 0 0 -40.41 -23.33 -69.98 -40.41 0 0 -0.01 0 -40.4 -23.33 0 0 -0.01 0 -40.41 -23.33 -69.98 -40.4 0 -0.01 -0.01 0 -40.4 -23.33 0 0 0 0 -110.4 -63.74 0 0 0 0 -40.41 -23.33 -38.62 -22.29c-0.33,-0.19 -0.65,-0.39 -0.96,-0.6l0 -0.02 -0.03 0c-0.78,-0.52 -1.46,-1.07 -2.05,-1.65l0 -0.02 -0.01 0c-0.14,-0.13 -0.28,-0.27 -0.41,-0.41l0 0 0 0c-0.71,-0.77 -1.26,-1.58 -1.66,-2.42l0 -0.08 -0.04 0c-0.86,-1.85 -0.99,-3.84 -0.39,-5.83l0.01 0 0 -0.03c0.7,-2.3 2.36,-4.58 4.95,-6.64l0.05 0 0 -0.04c0.89,-0.7 1.89,-1.38 2.99,-2.02l54.71 -31.58 543.9 314.02c3.95,2.28 9.23,3.39 14.76,3.39 6.68,0 13.72,-1.62 19.22,-4.8l131.79 -76.09 40.41 -23.33 0 0 0 0 150.81 -87.06 8.59 -4.96 57.9 33.43c0.35,0.2 0.68,0.41 1,0.62l0 0.07 0.1 0c0.57,0.39 1.1,0.8 1.57,1.22l0 0.03 0.02 0c0.14,0.12 0.27,0.24 0.39,0.36l0 0.05 0.05 0c0.13,0.13 0.25,0.26 0.37,0.39l0 0.03 0.03 0c0.7,0.77 1.24,1.59 1.64,2.44l0 0.06 0.03 0c0.15,0.34 0.28,0.68 0.38,1.03l0 0.22 0.07 0c0.36,1.35 0.36,2.76 -0.01,4.17l-0.06 0 0 0.21c-0.26,0.91 -0.66,1.81 -1.22,2.7l-0.03 0 0 0.05c-0.34,0.54 -0.74,1.08 -1.2,1.62l-0.05 0 0 0.05 -0.32 0.36 -0.09 0 0 0.1 -0.31 0.32 -0.11 0 0 0.12 -0.31 0.3 -0.11 0 0 0.1 -0.34 0.32 -0.07 0 0 0.06 -0.42 0.35 0 0 0 0c-0.51,0.43 -1.06,0.85 -1.64,1.25l-0.03 0 0 0.02c-0.56,0.39 -1.16,0.76 -1.79,1.13l-39.86 23.01 -0.01 0 0 0.01 -110.39 63.73 -0.01 0 0 0 -110.39 63.74 -125.51 72.47c-1.72,0.99 -3.59,1.83 -5.55,2.52l-0.17 0 0 0.06c-0.36,0.12 -0.72,0.24 -1.09,0.36l-0.16 0 0 0.05c-1.63,0.5 -3.31,0.9 -5.01,1.2l-0.41 0 0 0.07c-0.85,0.14 -1.72,0.25 -2.58,0.34l-0.33 0 0 0.04c-1.36,0.13 -2.72,0.19 -4.06,0.19 -3.09,0 -6.11,-0.34 -8.86,-1.05z"/>
   <path class="fil3" d="M714.48 1239.03c-6.83,0 -13.36,-1.42 -18.35,-4.29l0 -0.01 -686.71 -396.47c-5.23,-3.02 -8.11,-7.33 -8.11,-12.14 0,-5.59 3.98,-11.09 10.91,-15.09l99.2 -58.12 5.39 3.11 -101.86 59.69c-5.23,3.01 -8.23,6.81 -8.23,10.41 0,3.58 2.94,6.03 5.41,7.45l686.7 396.48 0 -0.01c4.16,2.41 9.74,3.58 15.61,3.58 7.19,0 14.8,-1.77 20.74,-5.2l468.11 -274.25c5.23,-3.03 8.23,-6.82 8.23,-10.42 0,-3.58 -2.94,-6.03 -5.41,-7.45l-101.75 -58.75 5.41 -3.13 99.05 57.19c5.23,3.02 8.11,7.33 8.11,12.14 0,5.59 -3.98,11.09 -10.92,15.09l-468.11 274.26c-6.79,3.93 -15.31,5.93 -23.42,5.93z"/>
   <path class="fil4" d="M1138.65 835.53c4.49,-1.65 8.2,-5.6 9.97,-11.35l135.54 -440.06c3.36,-10.91 -1.56,-24.17 -10.99,-29.61l-599.32 -346.02c-2.74,-1.58 -5.55,-2.33 -8.24,-2.33 -1.51,0 -2.98,0.24 -4.38,0.69l10.53 -3.67 0.06 -0.02 0.01 0 0 0c1.28,-0.38 2.62,-0.57 3.99,-0.57 2.7,0 5.51,0.75 8.24,2.32l599.32 346.03c9.43,5.44 14.35,18.7 10.99,29.61l-135.54 440.05c-1.72,5.61 -5.29,9.49 -9.64,11.21l0.03 0.01 -10.57 3.71z"/>
   <path class="fil5" d="M714.82 1096.15c-5.53,0 -10.81,-1.11 -14.76,-3.39l-543.9 -314.02 -39.35 -22.72 -5.39 -3.11 -8.81 -5.08c-3.38,-1.96 -5.26,-4.48 -5.74,-7.17l-0.02 0.01 -3.57 -17.84c0.52,2.24 2.03,4.33 4.56,6.07 0.36,0.25 0.75,0.5 1.16,0.74l601.7 347.38c0.04,0.03 0.08,0.05 0.13,0.07 0.02,0.02 0.04,0.03 0.06,0.04 3.95,2.22 9.18,3.31 14.66,3.31 3.58,0 7.25,-0.46 10.74,-1.37 0.01,0 0.01,-0.01 0.01,-0.01 3.08,-0.8 6.02,-1.96 8.61,-3.46l386.17 -222.95c0.02,-0.01 0.05,-0.03 0.07,-0.04 0.01,-0.01 0.02,-0.01 0.02,-0.01 0.02,-0.01 0.04,-0.03 0.05,-0.03 0.01,-0.01 0.02,-0.01 0.02,-0.02 0.05,-0.03 0.1,-0.06 0.15,-0.08 0,0 0,0 0.01,-0.01 4.56,-2.71 7.23,-6.05 7.89,-9.35l-3.66 17.41 -0.02 -0.02c-0.67,3.35 -3.39,6.74 -8.13,9.47l-7.71 4.45 -5.41 3.13 -38.72 22.36 -331.6 191.44c-5.5,3.18 -12.54,4.8 -19.22,4.8z"/>
   <path class="fil6" d="M715.55 1080.44c-5.48,0 -10.71,-1.09 -14.66,-3.31 3.95,2.22 9.18,3.31 14.66,3.31 3.57,0 7.25,-0.46 10.74,-1.37 -3.49,0.91 -7.16,1.37 -10.74,1.37zm10.74 -1.37c0.01,0 0.01,-0.01 0.01,-0.01 0,0 0,0.01 -0.01,0.01zm-25.46 -1.98c-0.05,-0.02 -0.09,-0.04 -0.13,-0.07 0.04,0.03 0.08,0.05 0.13,0.07zm14.73 -1.34c-5.57,0 -10.89,-1.12 -14.86,-3.42l-601.7 -347.38c-2.99,-1.73 -4.74,-3.91 -5.47,-6.24 -1.07,3.7 0.28,7.41 4.31,10.19 -2.53,-1.74 -4.04,-3.83 -4.56,-6.07 -1.02,-4.37 1.78,-9.26 8.17,-12.95l386.18 -222.96c5.53,-3.2 12.63,-4.83 19.35,-4.83 5.57,0 10.89,1.12 14.86,3.42l3.01 1.73c0.42,0.29 0.86,0.57 1.3,0.82l598.63 345.62c3.73,2.6 5.21,5.99 4.51,9.43 -0.66,3.3 -3.33,6.64 -7.89,9.35 6.44,-3.83 9,-8.88 7.61,-13.33 -0.9,3.14 -3.49,6.27 -7.93,8.83l-386.17 222.96c-5.54,3.2 -12.63,4.83 -19.35,4.83zm-246.75 -310.46c-6.44,0 -13.19,1.58 -18.57,4.69l-81.16 46.85c-5.52,3.2 -8.69,7.59 -8.69,12.06 0,3.85 2.3,7.3 6.48,9.71l157.66 91.02c3.97,2.29 9.16,3.42 14.58,3.42 6.43,0 13.18,-1.59 18.56,-4.7l81.16 -46.85c5.53,-3.19 8.7,-7.59 8.7,-12.06 0,-3.85 -2.3,-7.3 -6.48,-9.71l-157.66 -91.02c-3.97,-2.29 -9.17,-3.41 -14.58,-3.41zm322.67 141.28c0,0.49 0.29,0.96 0.9,1.31l22.63 13.07c0.6,0.35 1.41,0.52 2.26,0.52 1.03,0 2.11,-0.25 2.95,-0.74l9.81 -5.67c0.84,-0.48 1.28,-1.1 1.28,-1.7 0,-0.49 -0.3,-0.95 -0.91,-1.3l-22.62 -13.07c-0.61,-0.35 -1.42,-0.52 -2.27,-0.52 -1.02,0 -2.1,0.25 -2.95,0.74l-9.81 5.66c-0.84,0.49 -1.27,1.11 -1.27,1.7zm-31.63 -18.26c0,0.49 0.29,0.96 0.9,1.31l22.62 13.07c0.61,0.34 1.43,0.51 2.27,0.51 1.03,0 2.11,-0.24 2.95,-0.73l9.81 -5.66c0.85,-0.49 1.28,-1.11 1.28,-1.71 0,-0.49 -0.3,-0.96 -0.9,-1.31l-22.63 -13.06c-0.61,-0.35 -1.42,-0.52 -2.27,-0.52 -1.02,0 -2.1,0.25 -2.95,0.73l-9.81 5.67c-0.84,0.48 -1.27,1.11 -1.27,1.7zm24.78 -25.87c0,0.6 0.36,1.17 1.1,1.59l59.83 34.54c0.74,0.43 1.73,0.64 2.77,0.64 1.25,0 2.56,-0.3 3.59,-0.89l20.13 -11.63c1.03,-0.59 1.56,-1.35 1.56,-2.08 0,-0.59 -0.36,-1.16 -1.1,-1.59l-59.83 -34.54c-0.74,-0.43 -1.73,-0.64 -2.76,-0.64 -1.25,0 -2.57,0.31 -3.6,0.9l-20.13 11.62c-1.03,0.6 -1.56,1.36 -1.56,2.08zm-7.46 15.87c0,0.49 0.3,0.96 0.91,1.31l22.62 13.06c0.6,0.35 1.42,0.52 2.26,0.52 1.03,0 2.11,-0.25 2.95,-0.74l9.81 -5.66c0.85,-0.49 1.28,-1.11 1.28,-1.7 0,-0.49 -0.3,-0.96 -0.9,-1.31l-22.63 -13.06c-0.61,-0.35 -1.41,-0.53 -2.26,-0.53 -1.03,0 -2.11,0.25 -2.95,0.74l-9.81 5.67c-0.84,0.49 -1.28,1.11 -1.28,1.7zm-48.69 -8.11c0,0.49 0.29,0.96 0.9,1.31l22.63 13.06c0.6,0.35 1.41,0.52 2.26,0.52 1.03,0 2.11,-0.25 2.95,-0.73l9.81 -5.67c0.84,-0.48 1.28,-1.11 1.28,-1.7 0,-0.49 -0.3,-0.96 -0.91,-1.31l-22.62 -13.07c-0.61,-0.34 -1.42,-0.51 -2.27,-0.51 -1.02,0 -2.11,0.24 -2.95,0.73l-9.81 5.67c-0.84,0.48 -1.27,1.11 -1.27,1.7zm102.56 -16.23c0,0.6 0.36,1.17 1.1,1.6l44.32 25.59c0.74,0.42 1.73,0.63 2.77,0.63 1.25,0 2.57,-0.3 3.59,-0.9l20.13 -11.62c1.03,-0.59 1.56,-1.35 1.56,-2.07 0,-0.6 -0.36,-1.17 -1.1,-1.6l-44.33 -25.59c-0.73,-0.43 -1.72,-0.64 -2.76,-0.64 -1.25,0 -2.57,0.31 -3.6,0.9l-20.12 11.62c-1.04,0.6 -1.56,1.36 -1.56,2.08zm-132.35 -1.14c0,0.59 0.36,1.16 1.1,1.59l20.31 11.73c0.74,0.43 1.73,0.64 2.77,0.64 1.25,0 2.56,-0.31 3.59,-0.9l23.98 -13.85c1.03,-0.59 1.56,-1.35 1.56,-2.07 0,-0.6 -0.36,-1.17 -1.1,-1.6l-20.32 -11.73c-0.73,-0.43 -1.72,-0.63 -2.76,-0.63 -1.25,0 -2.57,0.3 -3.6,0.9l-23.98 13.84c-1.03,0.59 -1.55,1.36 -1.55,2.08zm186.89 -2.63c0,0.6 0.37,1.17 1.1,1.6l20.32 11.73c0.74,0.42 1.72,0.63 2.76,0.63 1.25,0 2.57,-0.3 3.6,-0.9l20.13 -11.62c1.03,-0.6 1.56,-1.36 1.56,-2.08 0,-0.59 -0.37,-1.17 -1.1,-1.59l-20.32 -11.73c-0.74,-0.43 -1.73,-0.64 -2.76,-0.64 -1.25,0 -2.57,0.31 -3.6,0.9l-20.13 11.62c-1.03,0.6 -1.56,1.36 -1.56,2.08zm-132.53 -5.99c0,0.59 0.36,1.17 1.1,1.59l20.32 11.73c0.74,0.43 1.73,0.64 2.76,0.64 1.25,0 2.57,-0.31 3.6,-0.9l20.13 -11.62c1.03,-0.6 1.56,-1.36 1.56,-2.08 0,-0.6 -0.37,-1.17 -1.11,-1.6l-20.31 -11.73c-0.74,-0.42 -1.72,-0.63 -2.76,-0.63 -1.25,0 -2.57,0.31 -3.6,0.9l-20.13 11.62c-1.03,0.6 -1.56,1.36 -1.56,2.08zm46.23 -8.58c0,0.6 0.36,1.17 1.1,1.6l20.31 11.73c0.74,0.42 1.73,0.63 2.76,0.63 1.26,0 2.57,-0.3 3.61,-0.89l20.12 -11.62c1.03,-0.6 1.56,-1.36 1.56,-2.09 0,-0.59 -0.36,-1.17 -1.1,-1.59l-20.31 -11.73c-0.74,-0.42 -1.73,-0.64 -2.77,-0.64 -1.25,0 -2.57,0.31 -3.6,0.91l-20.13 11.62c-1.03,0.59 -1.55,1.35 -1.55,2.07zm-142.99 -7.28c0,0.6 0.36,1.17 1.1,1.59l32.49 18.76c0.73,0.43 1.72,0.64 2.76,0.64 1.25,0 2.57,-0.31 3.6,-0.9l23.97 -13.85c1.03,-0.59 1.56,-1.35 1.57,-2.08 0,-0.59 -0.37,-1.16 -1.11,-1.59l-32.48 -18.75c-0.75,-0.43 -1.73,-0.64 -2.77,-0.64 -1.25,0 -2.57,0.3 -3.6,0.9l-23.98 13.84c-1.02,0.6 -1.55,1.36 -1.55,2.08zm242.73 -5.65c0,0.6 0.37,1.17 1.11,1.6l37.41 21.6c0.73,0.42 1.73,0.63 2.76,0.63 1.25,0 2.57,-0.3 3.6,-0.9l20.13 -11.62c1.03,-0.6 1.55,-1.36 1.56,-2.08 0,-0.59 -0.37,-1.17 -1.1,-1.59l-37.42 -21.6c-0.74,-0.43 -1.73,-0.64 -2.76,-0.64 -1.25,0 -2.57,0.31 -3.6,0.9l-20.13 11.62c-1.03,0.6 -1.55,1.36 -1.56,2.08zm-44.81 9.39c0,0.59 0.36,1.17 1.1,1.6l20.32 11.73c0.74,0.42 1.73,0.63 2.76,0.63 1.25,0 2.57,-0.3 3.6,-0.9l20.13 -11.62c1.03,-0.6 1.56,-1.36 1.56,-2.08 0,-0.6 -0.37,-1.17 -1.11,-1.6l-20.31 -11.72c-0.74,-0.43 -1.73,-0.64 -2.76,-0.64 -1.25,0 -2.57,0.31 -3.6,0.9l-20.13 11.62c-1.03,0.6 -1.56,1.35 -1.56,2.08zm-132.53 -5.99c0,0.6 0.36,1.17 1.1,1.59l20.31 11.73c0.75,0.43 1.73,0.64 2.77,0.64 1.25,0 2.57,-0.31 3.6,-0.9l20.13 -11.63c1.03,-0.59 1.56,-1.35 1.56,-2.07 -0.01,-0.6 -0.37,-1.17 -1.11,-1.6l-20.31 -11.73c-0.74,-0.42 -1.73,-0.63 -2.76,-0.63 -1.25,0 -2.57,0.3 -3.6,0.9l-20.13 11.62c-1.03,0.59 -1.56,1.35 -1.56,2.08zm46.23 -8.58c0,0.6 0.36,1.17 1.1,1.6l20.31 11.72c0.74,0.43 1.73,0.64 2.76,0.64 1.25,0 2.57,-0.3 3.6,-0.9l20.13 -11.62c1.03,-0.59 1.56,-1.35 1.56,-2.07 0,-0.6 -0.36,-1.18 -1.1,-1.6l-20.31 -11.73c-0.75,-0.43 -1.73,-0.64 -2.77,-0.64 -1.25,0 -2.57,0.31 -3.6,0.9l-20.13 11.62c-1.03,0.6 -1.56,1.36 -1.55,2.08zm54.93 -3.54c0,0.6 0.36,1.17 1.1,1.59l20.32 11.73c0.73,0.43 1.73,0.64 2.76,0.64 1.25,0 2.57,-0.31 3.6,-0.9l20.13 -11.62c1.03,-0.6 1.56,-1.36 1.56,-2.08 0,-0.6 -0.37,-1.17 -1.11,-1.6l-20.31 -11.72c-0.74,-0.43 -1.73,-0.64 -2.76,-0.64 -1.25,0 -2.57,0.3 -3.6,0.9l-20.13 11.62c-1.03,0.59 -1.56,1.36 -1.56,2.08zm-285.25 -53.2l108.94 62.89c0.88,0.51 2.02,0.76 3.17,0.76 1.15,0 2.3,-0.25 3.18,-0.76l24.45 -14.11c0.87,-0.51 1.31,-1.17 1.31,-1.84 0,-0.66 -0.44,-1.32 -1.31,-1.83l-117.94 -68.09 -23.53 -13.58c-0.74,-0.43 -1.73,-0.64 -2.77,-0.64 -1.25,0 -2.57,0.31 -3.6,0.9l-23.97 13.84c-1.03,0.6 -1.56,1.36 -1.56,2.08 0,0.6 0.36,1.17 1.1,1.6l32.48 18.75c0.02,0.01 0.03,0.02 0.05,0.03zm152.72 47.21c0,0.59 0.36,1.16 1.1,1.59l20.31 11.73c0.74,0.43 1.73,0.64 2.77,0.64 1.25,0 2.57,-0.31 3.59,-0.9l20.14 -11.63c1.03,-0.59 1.55,-1.35 1.55,-2.07 0,-0.6 -0.36,-1.17 -1.1,-1.6l-20.31 -11.72c-0.74,-0.43 -1.73,-0.64 -2.77,-0.64 -1.25,0 -2.57,0.3 -3.6,0.89l-20.12 11.63c-1.03,0.59 -1.56,1.35 -1.56,2.08zm178.76 -2.59c0,0.6 0.36,1.17 1.09,1.6l20.32 11.73c0.74,0.43 1.72,0.63 2.76,0.63 1.25,0 2.57,-0.3 3.6,-0.9l20.13 -11.61c1.03,-0.6 1.56,-1.36 1.56,-2.08 0,-0.6 -0.36,-1.17 -1.1,-1.6l-20.32 -11.73c-0.73,-0.43 -1.72,-0.63 -2.75,-0.63 -1.26,0 -2.58,0.3 -3.61,0.9l-20.13 11.62c-1.03,0.59 -1.55,1.35 -1.55,2.07zm56.89 -4.21c0,0.6 0.37,1.17 1.1,1.6l20.32 11.73c0.74,0.42 1.73,0.63 2.76,0.63 1.25,0 2.57,-0.3 3.61,-0.9l6.65 -3.84c1.03,-0.59 1.55,-1.36 1.55,-2.08 0,-0.6 -0.36,-1.16 -1.1,-1.59l-20.31 -11.73c-0.74,-0.43 -1.73,-0.64 -2.77,-0.64 -1.25,0 -2.56,0.31 -3.6,0.9l-6.64 3.84c-1.04,0.6 -1.56,1.36 -1.57,2.08zm-189.43 -1.78c0,0.6 0.36,1.17 1.11,1.59l20.31 11.74c0.74,0.42 1.72,0.63 2.76,0.63 1.25,0 2.57,-0.3 3.6,-0.9l20.13 -11.62c1.03,-0.6 1.56,-1.36 1.56,-2.08 0,-0.59 -0.36,-1.17 -1.11,-1.59l-20.3 -11.73c-0.74,-0.43 -1.73,-0.64 -2.77,-0.64 -1.25,0 -2.57,0.31 -3.6,0.9l-20.13 11.62c-1.03,0.6 -1.56,1.36 -1.56,2.08zm54.94 -3.54c0,0.59 0.36,1.16 1.1,1.59l20.32 11.73c0.73,0.43 1.72,0.63 2.76,0.63 1.25,0 2.57,-0.3 3.6,-0.89l20.13 -11.62c1.03,-0.6 1.56,-1.36 1.55,-2.08 0,-0.6 -0.36,-1.17 -1.1,-1.6l-20.31 -11.73c-0.74,-0.42 -1.73,-0.63 -2.77,-0.63 -1.25,0 -2.56,0.3 -3.59,0.9l-20.13 11.62c-1.03,0.59 -1.56,1.35 -1.56,2.08zm-132.53 -6c0,0.6 0.36,1.17 1.1,1.6l20.31 11.73c0.74,0.43 1.73,0.63 2.77,0.63 1.25,0 2.57,-0.3 3.6,-0.9l20.12 -11.62c1.03,-0.59 1.56,-1.35 1.56,-2.07 0,-0.6 -0.36,-1.18 -1.1,-1.6l-20.31 -11.73c-0.74,-0.43 -1.73,-0.63 -2.77,-0.63 -1.25,0 -2.57,0.3 -3.59,0.89l-20.14 11.63c-1.02,0.59 -1.55,1.35 -1.55,2.07zm178.75 -2.58c0,0.6 0.37,1.17 1.11,1.6l20.31 11.73c0.74,0.42 1.73,0.63 2.76,0.63 1.25,0 2.57,-0.3 3.6,-0.9l20.13 -11.62c1.03,-0.59 1.56,-1.35 1.56,-2.08 0,-0.59 -0.36,-1.17 -1.1,-1.59l-20.32 -11.73c-0.74,-0.42 -1.72,-0.63 -2.76,-0.63 -1.25,0 -2.57,0.3 -3.6,0.89l-20.13 11.62c-1.03,0.6 -1.56,1.36 -1.56,2.08zm57.19 -4.04c0,0.59 0.36,1.17 1.11,1.59l20.3 11.73c0.75,0.43 1.74,0.63 2.77,0.63 1.25,0 2.57,-0.3 3.6,-0.9l6.65 -3.84c1.03,-0.59 1.56,-1.35 1.56,-2.08 0,-0.59 -0.36,-1.17 -1.1,-1.59l-20.31 -11.73c-0.74,-0.43 -1.73,-0.63 -2.77,-0.63 -1.25,0 -2.57,0.3 -3.6,0.9l-6.65 3.84c-1.03,0.59 -1.56,1.35 -1.56,2.08zm-189.72 -1.95c0,0.6 0.36,1.17 1.1,1.59l20.32 11.73c0.74,0.43 1.72,0.63 2.76,0.63 1.25,0 2.57,-0.3 3.6,-0.89l20.13 -11.62c1.03,-0.6 1.56,-1.36 1.56,-2.08 0,-0.6 -0.36,-1.17 -1.1,-1.59l-20.32 -11.74c-0.74,-0.42 -1.73,-0.63 -2.76,-0.63 -1.25,0 -2.57,0.31 -3.6,0.9l-20.13 11.62c-1.03,0.59 -1.56,1.36 -1.56,2.08zm54.94 -3.55c0,0.6 0.36,1.18 1.1,1.6l20.32 11.73c0.73,0.43 1.72,0.63 2.76,0.63 1.25,0 2.57,-0.3 3.6,-0.9l20.12 -11.61c1.04,-0.6 1.56,-1.36 1.56,-2.08 0,-0.6 -0.36,-1.17 -1.1,-1.6l-20.31 -11.73c-0.74,-0.43 -1.73,-0.63 -2.77,-0.63 -1.25,0 -2.56,0.3 -3.6,0.9l-20.12 11.62c-1.03,0.59 -1.56,1.35 -1.56,2.07zm-132.53 -5.99c0,0.6 0.36,1.17 1.1,1.6l20.31 11.73c0.74,0.42 1.73,0.63 2.77,0.63 1.25,0 2.56,-0.3 3.6,-0.9l20.13 -11.62c1.03,-0.59 1.55,-1.36 1.55,-2.08 0,-0.6 -0.36,-1.17 -1.1,-1.59l-20.31 -11.73c-0.74,-0.43 -1.73,-0.64 -2.77,-0.64 -1.25,0 -2.57,0.31 -3.6,0.9l-20.13 11.62c-1.02,0.6 -1.55,1.36 -1.55,2.08zm178.75 -2.58c0,0.6 0.36,1.17 1.11,1.6l20.31 11.72c0.74,0.43 1.72,0.64 2.76,0.64 1.25,0 2.57,-0.3 3.6,-0.9l20.13 -11.62c1.03,-0.59 1.56,-1.36 1.56,-2.08 0,-0.6 -0.36,-1.17 -1.11,-1.59l-20.31 -11.73c-0.74,-0.43 -1.72,-0.64 -2.76,-0.64 -1.25,0 -2.57,0.31 -3.6,0.9l-20.13 11.62c-1.03,0.6 -1.56,1.36 -1.56,2.08zm57.47 -3.88c0,0.6 0.37,1.17 1.11,1.59l20.31 11.73c0.74,0.43 1.73,0.64 2.76,0.64 1.25,0 2.57,-0.31 3.6,-0.9l6.66 -3.84c1.03,-0.6 1.55,-1.36 1.55,-2.08 0,-0.6 -0.36,-1.17 -1.1,-1.6l-20.31 -11.72c-0.74,-0.43 -1.73,-0.64 -2.76,-0.64 -1.25,0 -2.57,0.31 -3.6,0.9l-6.66 3.84c-1.03,0.59 -1.56,1.35 -1.56,2.08zm-190 -2.11c0,0.6 0.37,1.17 1.1,1.59l20.32 11.73c0.74,0.43 1.72,0.64 2.76,0.64 1.25,0 2.57,-0.31 3.6,-0.9l20.13 -11.62c1.03,-0.6 1.55,-1.36 1.55,-2.08 0,-0.6 -0.36,-1.17 -1.09,-1.6l-20.32 -11.72c-0.74,-0.43 -1.73,-0.64 -2.76,-0.64 -1.25,0 -2.57,0.3 -3.6,0.9l-20.13 11.62c-1.03,0.59 -1.56,1.35 -1.56,2.08zm54.94 -3.55c-0.01,0.6 0.36,1.17 1.1,1.6l20.32 11.73c0.73,0.42 1.72,0.63 2.76,0.63 1.25,0 2.57,-0.3 3.6,-0.9l20.12 -11.62c1.03,-0.59 1.56,-1.36 1.56,-2.08 0,-0.59 -0.36,-1.16 -1.1,-1.59l-20.32 -11.73c-0.73,-0.43 -1.72,-0.64 -2.76,-0.64 -1.25,0 -2.57,0.31 -3.6,0.91l-20.12 11.62c-1.03,0.59 -1.56,1.35 -1.56,2.07zm-132.53 -5.99c0,0.6 0.36,1.17 1.1,1.6l20.31 11.72c0.74,0.43 1.73,0.64 2.76,0.64 1.26,0 2.57,-0.3 3.61,-0.9l20.13 -11.62c1.03,-0.59 1.55,-1.36 1.55,-2.08 0,-0.6 -0.36,-1.17 -1.1,-1.6l-20.31 -11.72c-0.75,-0.43 -1.73,-0.64 -2.77,-0.64 -1.25,0 -2.57,0.31 -3.6,0.9l-20.13 11.62c-1.03,0.6 -1.55,1.36 -1.55,2.08zm178.75 -2.58c0,0.6 0.36,1.17 1.1,1.59l20.31 11.73c0.75,0.43 1.73,0.64 2.77,0.64 1.25,0 2.57,-0.31 3.6,-0.9l20.13 -11.62c1.03,-0.6 1.56,-1.36 1.56,-2.08 0,-0.6 -0.36,-1.17 -1.11,-1.6l-20.31 -11.73c-0.74,-0.42 -1.73,-0.63 -2.76,-0.63 -1.25,0 -2.57,0.3 -3.6,0.9l-20.13 11.62c-1.03,0.59 -1.56,1.36 -1.56,2.08zm57.76 -3.72c0,0.6 0.36,1.17 1.1,1.6l20.32 11.73c0.74,0.42 1.72,0.63 2.76,0.63 1.25,0 2.57,-0.3 3.6,-0.9l6.65 -3.84c1.03,-0.6 1.56,-1.36 1.56,-2.08 0,-0.59 -0.36,-1.17 -1.1,-1.59l-20.32 -11.73c-0.73,-0.43 -1.72,-0.64 -2.76,-0.64 -1.25,0 -2.57,0.31 -3.6,0.9l-6.65 3.84c-1.03,0.6 -1.56,1.36 -1.56,2.08zm-190.29 -2.28c0,0.6 0.36,1.17 1.1,1.6l20.32 11.73c0.73,0.42 1.72,0.63 2.75,0.63 1.26,0 2.58,-0.3 3.61,-0.9l20.12 -11.62c1.03,-0.59 1.56,-1.35 1.57,-2.08 0,-0.59 -0.37,-1.16 -1.1,-1.59l-20.32 -11.73c-0.74,-0.42 -1.73,-0.64 -2.76,-0.64 -1.25,0 -2.57,0.31 -3.61,0.91l-20.12 11.62c-1.03,0.59 -1.56,1.35 -1.56,2.07zm54.94 -3.54c0,0.6 0.36,1.17 1.1,1.6l20.31 11.72c0.74,0.43 1.73,0.64 2.76,0.64 1.25,0 2.58,-0.31 3.61,-0.9l20.12 -11.62c1.03,-0.59 1.56,-1.36 1.56,-2.08 0,-0.6 -0.36,-1.17 -1.1,-1.59l-20.31 -11.73c-0.74,-0.43 -1.73,-0.64 -2.77,-0.64 -1.25,0 -2.57,0.31 -3.6,0.9l-20.12 11.62c-1.03,0.6 -1.56,1.36 -1.56,2.08zm-132.54 -5.99c0,0.6 0.37,1.17 1.11,1.59l20.31 11.73c0.74,0.43 1.73,0.64 2.76,0.64 1.25,0 2.57,-0.31 3.6,-0.9l20.13 -11.62c1.03,-0.6 1.56,-1.36 1.56,-2.08 0,-0.6 -0.36,-1.17 -1.1,-1.6l-20.31 -11.72c-0.75,-0.43 -1.73,-0.64 -2.77,-0.64 -1.25,0 -2.57,0.3 -3.6,0.9l-20.13 11.62c-1.03,0.59 -1.56,1.35 -1.56,2.08zm178.76 -2.58c0,0.59 0.36,1.16 1.1,1.59l20.31 11.73c0.74,0.43 1.73,0.64 2.77,0.64 1.25,0 2.57,-0.31 3.6,-0.91l20.13 -11.62c1.03,-0.59 1.55,-1.35 1.55,-2.07 0,-0.6 -0.36,-1.17 -1.1,-1.6l-20.31 -11.73c-0.74,-0.42 -1.73,-0.63 -2.76,-0.63 -1.26,0 -2.57,0.3 -3.6,0.9l-20.14 11.61c-1.02,0.6 -1.55,1.36 -1.55,2.09zm-132.53 -6c0,0.6 0.36,1.17 1.1,1.6l20.32 11.72c0.73,0.43 1.72,0.64 2.76,0.64 1.25,0 2.57,-0.3 3.6,-0.9l20.12 -11.62c1.03,-0.59 1.56,-1.35 1.56,-2.07 0.01,-0.6 -0.36,-1.18 -1.1,-1.6l-20.31 -11.73c-0.74,-0.43 -1.73,-0.64 -2.76,-0.64 -1.26,0 -2.58,0.31 -3.61,0.9l-20.12 11.62c-1.03,0.6 -1.56,1.36 -1.56,2.08zm54.94 -3.54c0,0.6 0.36,1.17 1.09,1.59l20.32 11.73c0.74,0.43 1.73,0.64 2.76,0.64 1.26,0 2.58,-0.31 3.61,-0.9l20.12 -11.62c1.03,-0.6 1.56,-1.36 1.56,-2.08 0,-0.6 -0.36,-1.17 -1.1,-1.6l-20.31 -11.72c-0.74,-0.43 -1.73,-0.64 -2.77,-0.64 -1.25,0 -2.57,0.31 -3.6,0.9l-20.12 11.62c-1.04,0.59 -1.56,1.36 -1.56,2.08zm-207.3 -9.15c0,0.6 0.37,1.17 1.1,1.6l32.49 18.75c0.75,0.43 1.73,0.64 2.77,0.64 1.25,0 2.57,-0.31 3.6,-0.9l23.98 -13.84c1.03,-0.6 1.55,-1.36 1.55,-2.08 0,-0.6 -0.36,-1.17 -1.1,-1.6l-32.49 -18.76c-0.73,-0.42 -1.72,-0.63 -2.76,-0.63 -1.25,0 -2.57,0.3 -3.6,0.9l-23.97 13.84c-1.04,0.6 -1.57,1.36 -1.57,2.08zm74.76 3.16c0,0.59 0.37,1.16 1.11,1.59l20.31 11.73c0.74,0.42 1.73,0.63 2.76,0.63 1.25,0 2.57,-0.3 3.6,-0.89l20.13 -11.62c1.03,-0.6 1.56,-1.36 1.56,-2.09 0,-0.59 -0.36,-1.16 -1.1,-1.59l-20.32 -11.73c-0.73,-0.42 -1.72,-0.63 -2.76,-0.63 -1.25,0 -2.57,0.3 -3.6,0.9l-20.13 11.62c-1.03,0.59 -1.56,1.35 -1.56,2.08zm178.76 -2.59c0,0.6 0.36,1.17 1.1,1.6l20.31 11.73c0.74,0.42 1.73,0.63 2.77,0.63 1.25,0 2.57,-0.3 3.6,-0.9l20.13 -11.62c1.03,-0.59 1.55,-1.35 1.55,-2.07 0,-0.6 -0.36,-1.17 -1.1,-1.6l-20.31 -11.73c-0.74,-0.43 -1.73,-0.63 -2.77,-0.63 -1.25,0 -2.56,0.3 -3.6,0.9l-20.12 11.61c-1.03,0.6 -1.56,1.36 -1.56,2.08zm-132.53 -5.99c0,0.6 0.36,1.17 1.1,1.59l20.31 11.74c0.74,0.42 1.73,0.63 2.77,0.63 1.25,0 2.56,-0.31 3.6,-0.9l20.13 -11.62c1.02,-0.6 1.55,-1.36 1.55,-2.08 0,-0.6 -0.36,-1.17 -1.1,-1.59l-20.31 -11.73c-0.74,-0.43 -1.73,-0.64 -2.76,-0.64 -1.26,0 -2.58,0.31 -3.61,0.9l-20.12 11.62c-1.04,0.6 -1.56,1.36 -1.56,2.08zm54.94 -3.54c0,0.59 0.35,1.16 1.1,1.59l20.31 11.73c0.74,0.43 1.73,0.64 2.76,0.64 1.25,0 2.58,-0.31 3.6,-0.9l20.13 -11.63c1.03,-0.59 1.56,-1.35 1.56,-2.07 0,-0.6 -0.36,-1.17 -1.1,-1.6l-20.32 -11.73c-0.74,-0.42 -1.72,-0.63 -2.76,-0.63 -1.25,0 -2.57,0.3 -3.6,0.9l-20.13 11.62c-1.03,0.59 -1.55,1.36 -1.55,2.08zm-132.54 -6c0,0.6 0.37,1.17 1.1,1.6l20.32 11.73c0.74,0.42 1.72,0.63 2.76,0.63 1.25,0 2.57,-0.3 3.6,-0.9l20.13 -11.62c1.03,-0.59 1.56,-1.35 1.56,-2.07 0,-0.6 -0.36,-1.17 -1.1,-1.6l-20.32 -11.73c-0.73,-0.43 -1.73,-0.64 -2.76,-0.64 -1.25,0 -2.57,0.31 -3.6,0.9l-20.13 11.62c-1.03,0.6 -1.56,1.36 -1.56,2.08zm178.76 -2.58c0,0.6 0.36,1.17 1.1,1.6l20.31 11.72c0.74,0.43 1.73,0.64 2.77,0.64 1.25,0 2.57,-0.3 3.6,-0.9l20.13 -11.62c1.02,-0.59 1.55,-1.35 1.55,-2.08 0,-0.59 -0.36,-1.16 -1.1,-1.59l-20.31 -11.73c-0.74,-0.43 -1.73,-0.64 -2.77,-0.64 -1.24,0 -2.57,0.31 -3.59,0.9l-20.13 11.63c-1.03,0.59 -1.56,1.35 -1.56,2.07zm-253.52 -0.57c0,0.6 0.37,1.17 1.1,1.59l20.32 11.74c0.74,0.42 1.73,0.63 2.76,0.63 1.25,0 2.57,-0.31 3.6,-0.9l23.98 -13.84c1.03,-0.6 1.56,-1.36 1.56,-2.08 0,-0.6 -0.36,-1.17 -1.1,-1.6l-20.31 -11.73c-0.74,-0.43 -1.73,-0.63 -2.77,-0.63 -1.25,0 -2.57,0.3 -3.6,0.9l-23.98 13.84c-1.03,0.6 -1.56,1.36 -1.56,2.08zm120.99 -5.42c0,0.59 0.36,1.17 1.1,1.59l20.31 11.73c0.74,0.43 1.73,0.64 2.76,0.64 1.26,0 2.57,-0.31 3.6,-0.9l20.14 -11.62c1.02,-0.59 1.55,-1.36 1.55,-2.08 0,-0.6 -0.36,-1.17 -1.1,-1.6l-20.31 -11.73c-0.74,-0.42 -1.73,-0.63 -2.77,-0.63 -1.25,0 -2.57,0.31 -3.6,0.9l-20.13 11.62c-1.03,0.6 -1.55,1.36 -1.55,2.08zm54.94 -3.55c-0.01,0.6 0.35,1.17 1.1,1.6l20.31 11.73c0.74,0.43 1.73,0.63 2.77,0.63 1.24,0 2.57,-0.3 3.59,-0.9l20.13 -11.61c1.03,-0.6 1.56,-1.36 1.56,-2.08 0,-0.6 -0.36,-1.17 -1.11,-1.6l-20.31 -11.73c-0.74,-0.43 -1.72,-0.63 -2.76,-0.63 -1.25,0 -2.57,0.3 -3.6,0.9l-20.13 11.62c-1.02,0.59 -1.55,1.35 -1.55,2.07zm-132.54 -5.99c0,0.6 0.37,1.17 1.1,1.59l20.32 11.74c0.73,0.42 1.73,0.63 2.76,0.63 1.25,0 2.57,-0.3 3.6,-0.9l20.13 -11.62c1.03,-0.6 1.56,-1.36 1.56,-2.08 0,-0.59 -0.37,-1.17 -1.1,-1.59l-20.32 -11.73c-0.74,-0.43 -1.73,-0.64 -2.76,-0.64 -1.25,0 -2.57,0.31 -3.6,0.9l-20.13 11.62c-1.03,0.6 -1.56,1.36 -1.56,2.08zm178.76 -2.58c0,0.6 0.36,1.17 1.1,1.6l20.31 11.72c0.74,0.43 1.73,0.64 2.77,0.64 1.25,0 2.57,-0.3 3.6,-0.9l20.13 -11.62c1.02,-0.59 1.55,-1.36 1.55,-2.08 0,-0.6 -0.36,-1.17 -1.1,-1.6l-20.31 -11.72c-0.74,-0.43 -1.73,-0.64 -2.77,-0.64 -1.24,0 -2.57,0.31 -3.59,0.9l-20.13 11.62c-1.04,0.6 -1.56,1.36 -1.56,2.08zm-253.51 -0.58c0,0.6 0.35,1.18 1.09,1.6l20.32 11.73c0.74,0.43 1.73,0.64 2.76,0.64 1.25,0 2.57,-0.31 3.6,-0.9l23.98 -13.85c1.03,-0.59 1.56,-1.35 1.56,-2.08 0,-0.59 -0.36,-1.16 -1.1,-1.59l-20.32 -11.73c-0.73,-0.42 -1.72,-0.63 -2.76,-0.63 -1.25,0 -2.57,0.3 -3.6,0.9l-23.98 13.84c-1.03,0.59 -1.55,1.35 -1.55,2.07zm120.97 -5.41c0,0.6 0.37,1.17 1.11,1.59l20.31 11.73c0.74,0.43 1.73,0.64 2.76,0.64 1.25,0 2.57,-0.31 3.6,-0.9l20.13 -11.62c1.03,-0.6 1.56,-1.36 1.56,-2.08 0,-0.6 -0.36,-1.17 -1.1,-1.6l-20.31 -11.73c-0.74,-0.42 -1.73,-0.63 -2.77,-0.63 -1.25,0 -2.57,0.3 -3.6,0.9l-20.13 11.62c-1.03,0.59 -1.56,1.35 -1.56,2.08zm54.16 -4c0,0.6 0.36,1.17 1.11,1.6l20.31 11.72c0.74,0.43 1.73,0.64 2.77,0.64 1.25,0 2.56,-0.3 3.59,-0.89l20.13 -11.63c1.03,-0.59 1.56,-1.36 1.56,-2.08 0,-0.59 -0.36,-1.17 -1.1,-1.59l-20.32 -11.73c-0.74,-0.43 -1.72,-0.64 -2.76,-0.64 -1.25,0 -2.57,0.31 -3.6,0.9l-20.13 11.63c-1.03,0.59 -1.56,1.35 -1.56,2.07zm-171.86 -28.7c0,0.6 0.36,1.17 1.1,1.6l59.83 34.54c0.74,0.43 1.73,0.63 2.76,0.63 1.25,0 2.57,-0.3 3.6,-0.9l20.13 -11.62c1.03,-0.59 1.56,-1.35 1.56,-2.07 0,-0.6 -0.37,-1.17 -1.1,-1.6l-59.83 -34.54c-0.74,-0.43 -1.73,-0.64 -2.77,-0.64 -1.25,0 -2.56,0.31 -3.59,0.9l-20.13 11.62c-1.03,0.6 -1.56,1.36 -1.56,2.08zm218.87 20.58c0,0.6 0.36,1.17 1.1,1.6l20.31 11.72c0.74,0.43 1.73,0.64 2.77,0.64 1.25,0 2.56,-0.31 3.59,-0.9l20.13 -11.62c1.04,-0.6 1.56,-1.36 1.56,-2.08 0,-0.6 -0.36,-1.17 -1.1,-1.6l-20.31 -11.73c-0.74,-0.42 -1.73,-0.63 -2.77,-0.63 -1.25,0 -2.57,0.3 -3.6,0.9l-20.13 11.62c-1.03,0.59 -1.56,1.36 -1.55,2.08zm-253.52 -0.58c0,0.6 0.36,1.17 1.11,1.6l20.31 11.73c0.74,0.42 1.73,0.64 2.76,0.64 1.25,0 2.57,-0.31 3.6,-0.9l23.98 -13.85c1.03,-0.59 1.56,-1.36 1.56,-2.08 0,-0.59 -0.37,-1.17 -1.1,-1.59l-20.32 -11.73c-0.73,-0.43 -1.72,-0.64 -2.76,-0.64 -1.25,0 -2.57,0.31 -3.6,0.9l-23.98 13.85c-1.03,0.59 -1.56,1.35 -1.56,2.07zm120.52 -5.69c0,0.6 0.36,1.17 1.1,1.6l20.31 11.73c0.74,0.42 1.73,0.63 2.76,0.63 1.25,0 2.57,-0.3 3.61,-0.89l20.12 -11.62c1.03,-0.6 1.56,-1.36 1.56,-2.09 0,-0.59 -0.36,-1.16 -1.1,-1.59l-20.31 -11.73c-0.74,-0.42 -1.73,-0.64 -2.77,-0.64 -1.25,0 -2.57,0.31 -3.6,0.91l-20.12 11.62c-1.04,0.59 -1.56,1.35 -1.56,2.07zm53.84 -4.17c0,0.6 0.37,1.17 1.1,1.6l20.32 11.72c0.73,0.43 1.73,0.64 2.76,0.64 1.25,0 2.57,-0.31 3.6,-0.9l20.12 -11.62c1.04,-0.6 1.57,-1.36 1.57,-2.08 0,-0.6 -0.37,-1.17 -1.1,-1.6l-20.32 -11.72c-0.74,-0.43 -1.73,-0.64 -2.76,-0.64 -1.25,0 -2.57,0.31 -3.6,0.9l-20.13 11.62c-1.03,0.59 -1.56,1.36 -1.56,2.08zm120.23 -2.91c0,0.59 0.36,1.16 1.1,1.59l20.31 11.73c0.74,0.43 1.73,0.63 2.76,0.63 1.26,0 2.58,-0.3 3.61,-0.9l6.65 -3.83c1.03,-0.6 1.56,-1.36 1.56,-2.08 0,-0.6 -0.36,-1.17 -1.1,-1.6l-20.31 -11.73c-0.75,-0.42 -1.73,-0.64 -2.77,-0.64 -1.25,0 -2.57,0.31 -3.6,0.91l-6.65 3.84c-1.03,0.59 -1.56,1.35 -1.56,2.08zm-72.45 -4.76c0,0.59 0.37,1.16 1.11,1.59l20.31 11.73c0.74,0.42 1.73,0.64 2.76,0.64 1.25,0 2.57,-0.31 3.6,-0.9l20.13 -11.63c1.03,-0.59 1.56,-1.35 1.56,-2.07 0,-0.6 -0.36,-1.17 -1.1,-1.6l-20.31 -11.73c-0.74,-0.43 -1.73,-0.64 -2.77,-0.64 -1.25,0 -2.57,0.31 -3.6,0.9l-20.13 11.63c-1.03,0.59 -1.56,1.35 -1.56,2.08zm-156.95 -20.1c0,0.6 0.36,1.17 1.1,1.6l43.75 25.25c0.74,0.43 1.73,0.64 2.76,0.64 1.25,0 2.57,-0.3 3.6,-0.9l20.13 -11.62c1.03,-0.59 1.56,-1.36 1.56,-2.08 0,-0.6 -0.36,-1.17 -1.1,-1.59l-43.75 -25.26c-0.74,-0.43 -1.72,-0.64 -2.76,-0.64 -1.25,0 -2.57,0.31 -3.61,0.9l-20.13 11.62c-1.03,0.59 -1.55,1.36 -1.55,2.08zm77.02 9.21c0,0.59 0.36,1.16 1.1,1.59l20.31 11.73c0.75,0.43 1.73,0.64 2.77,0.64 1.25,0 2.57,-0.31 3.6,-0.9l20.13 -11.63c1.03,-0.59 1.56,-1.35 1.55,-2.07 0,-0.6 -0.36,-1.17 -1.1,-1.6l-20.31 -11.73c-0.74,-0.42 -1.73,-0.63 -2.76,-0.63 -1.25,0 -2.57,0.3 -3.6,0.9l-20.13 11.62c-1.03,0.59 -1.56,1.35 -1.56,2.08zm121.29 -2.3c0,0.6 0.37,1.17 1.1,1.6l20.32 11.72c0.74,0.43 1.73,0.64 2.76,0.64 1.25,0 2.57,-0.31 3.6,-0.9l6.65 -3.84c1.04,-0.6 1.56,-1.36 1.56,-2.08 0,-0.6 -0.36,-1.17 -1.1,-1.6l-20.31 -11.72c-0.74,-0.43 -1.73,-0.64 -2.77,-0.64 -1.25,0 -2.56,0.31 -3.59,0.9l-6.66 3.84c-1.03,0.6 -1.56,1.36 -1.56,2.08zm-72.57 -4.84c0,0.6 0.36,1.17 1.1,1.6l20.32 11.73c0.74,0.42 1.72,0.63 2.76,0.63 1.25,0 2.57,-0.3 3.6,-0.89l20.13 -11.62c1.03,-0.6 1.56,-1.36 1.56,-2.09 0,-0.59 -0.37,-1.17 -1.11,-1.59l-20.31 -11.73c-0.74,-0.42 -1.73,-0.64 -2.77,-0.64 -1.25,0 -2.56,0.31 -3.59,0.9l-20.13 11.63c-1.03,0.59 -1.56,1.35 -1.56,2.07zm-95.2 -19.7c0,0.6 0.36,1.17 1.1,1.6l35.5 20.49c0.74,0.43 1.73,0.64 2.77,0.64 1.25,0 2.57,-0.3 3.6,-0.9l20.12 -11.62c1.03,-0.59 1.56,-1.36 1.56,-2.08 0,-0.6 -0.36,-1.17 -1.1,-1.59l-35.5 -20.5c-0.74,-0.43 -1.73,-0.64 -2.77,-0.64 -1.25,0 -2.57,0.31 -3.6,0.9l-20.13 11.62c-1.03,0.6 -1.55,1.36 -1.55,2.08zm136.69 6.59c0,0.6 0.36,1.17 1.1,1.6l20.32 11.73c0.74,0.42 1.72,0.64 2.76,0.64 1.25,0 2.57,-0.31 3.6,-0.91l6.65 -3.84c1.03,-0.59 1.56,-1.35 1.56,-2.07 0,-0.6 -0.36,-1.18 -1.1,-1.6l-20.32 -11.73c-0.73,-0.43 -1.72,-0.64 -2.76,-0.64 -1.25,0 -2.57,0.31 -3.6,0.9l-6.65 3.84c-1.03,0.6 -1.56,1.36 -1.56,2.08zm-72.7 -4.91c0,0.6 0.36,1.17 1.1,1.6l20.31 11.73c0.74,0.42 1.73,0.63 2.76,0.63 1.25,0 2.57,-0.31 3.61,-0.9l20.12 -11.62c1.03,-0.6 1.56,-1.36 1.56,-2.08 0,-0.59 -0.36,-1.16 -1.1,-1.59l-20.31 -11.73c-0.74,-0.43 -1.73,-0.64 -2.77,-0.64 -1.25,0 -2.57,0.31 -3.6,0.91l-20.13 11.61c-1.02,0.6 -1.55,1.36 -1.55,2.08zm41.61 -13.03c0,0.59 0.37,1.16 1.11,1.59l20.31 11.73c0.74,0.43 1.73,0.63 2.76,0.63 1.25,0 2.57,-0.3 3.6,-0.89l6.66 -3.84c1.03,-0.6 1.55,-1.36 1.55,-2.08 0,-0.6 -0.36,-1.17 -1.1,-1.6l-20.31 -11.73c-0.74,-0.42 -1.73,-0.64 -2.76,-0.64 -1.26,0 -2.58,0.31 -3.6,0.91l-6.66 3.84c-1.03,0.59 -1.56,1.35 -1.56,2.08zm-72.83 -4.99c0,0.6 0.36,1.17 1.1,1.59l20.31 11.73c0.75,0.43 1.73,0.64 2.77,0.64 1.25,0 2.57,-0.31 3.6,-0.9l20.13 -11.62c1.03,-0.59 1.56,-1.36 1.56,-2.08 -0.01,-0.6 -0.37,-1.17 -1.11,-1.6l-20.31 -11.72c-0.74,-0.43 -1.73,-0.64 -2.76,-0.64 -1.25,0 -2.57,0.31 -3.6,0.9l-20.13 11.62c-1.03,0.6 -1.56,1.36 -1.56,2.08zm32.1 -18.53c0,0.6 0.36,1.17 1.1,1.59l20.31 11.73c0.74,0.43 1.73,0.64 2.77,0.64 1.25,0 2.57,-0.31 3.6,-0.9l6.65 -3.84c1.03,-0.6 1.56,-1.36 1.56,-2.08 0,-0.6 -0.36,-1.17 -1.1,-1.6l-20.31 -11.73c-0.75,-0.42 -1.73,-0.63 -2.77,-0.63 -1.25,0 -2.57,0.31 -3.6,0.9l-6.65 3.84c-1.04,0.59 -1.56,1.36 -1.56,2.08zm13.86 358.63c-4.63,0 -9.03,-0.9 -12.24,-2.75l-157.65 -91.02c-1.92,-1.11 -4.21,-3.01 -4.21,-5.77 0,-2.8 2.34,-5.76 6.42,-8.11l81.16 -46.86c4.61,-2.66 10.66,-4.03 16.36,-4.03 4.63,0 9.03,0.9 12.23,2.75l157.66 91.03c1.92,1.1 4.21,3 4.21,5.76 0,2.8 -2.34,5.76 -6.43,8.12l-81.15 46.85c-4.61,2.67 -10.66,4.03 -16.36,4.03zm582.04 -75.78c0.02,-0.02 0.05,-0.03 0.07,-0.04 -0.02,0.01 -0.05,0.03 -0.07,0.04zm0.09 -0.05c0.02,-0.01 0.04,-0.03 0.05,-0.03 -0.01,0 -0.03,0.02 -0.05,0.03zm0.07 -0.05c0.05,-0.03 0.1,-0.06 0.15,-0.08 -0.05,0.02 -0.1,0.05 -0.15,0.08z"/>
   <path class="fil7" d="M1121.08 847.96l-386.17 222.96c-10.13,5.85 -25.45,6.48 -34.21,1.41l-601.7 -347.38c-2.99,-1.73 -4.74,-3.91 -5.47,-6.24 -1.16,4.03 0.54,8.08 5.47,10.93l601.7 347.38c8.76,5.07 24.08,4.43 34.21,-1.42l386.17 -222.95c6.68,-3.86 9.34,-9 7.93,-13.52 -0.9,3.14 -3.49,6.27 -7.93,8.83z"/>
   <path class="fil8" d="M388.76 673.9c-1.03,0 -2.02,-0.22 -2.76,-0.64l-20.31 -11.73c-0.75,-0.43 -1.11,-1 -1.11,-1.6 0,-0.72 0.53,-1.48 1.56,-2.07l23.98 -13.85c1.03,-0.59 2.35,-0.9 3.6,-0.9 1.04,0 2.03,0.21 2.76,0.64l20.32 11.73c0.73,0.42 1.1,1 1.1,1.59 0,0.72 -0.53,1.49 -1.56,2.08l-23.98 13.85c-1.03,0.59 -2.35,0.9 -3.6,0.9z"/>
   <path class="fil9" d="M420.13 692.01c-1.03,0 -2.02,-0.21 -2.76,-0.64l-20.32 -11.73c-0.74,-0.42 -1.09,-1 -1.09,-1.6 0,-0.72 0.52,-1.48 1.55,-2.07l23.98 -13.84c1.03,-0.6 2.35,-0.9 3.6,-0.9 1.04,0 2.03,0.21 2.76,0.63l20.32 11.73c0.74,0.43 1.1,1 1.1,1.59 0,0.73 -0.53,1.49 -1.56,2.08l-23.98 13.85c-1.03,0.59 -2.35,0.9 -3.6,0.9z"/>
   <path class="fil10" d="M451.5 710.12c-1.03,0 -2.02,-0.21 -2.76,-0.63l-20.32 -11.74c-0.73,-0.42 -1.1,-0.99 -1.1,-1.59 0,-0.72 0.53,-1.48 1.56,-2.08l23.98 -13.84c1.03,-0.6 2.35,-0.9 3.6,-0.9 1.04,0 2.03,0.2 2.77,0.63l20.31 11.73c0.74,0.43 1.1,1 1.1,1.6 0,0.72 -0.53,1.48 -1.56,2.08l-23.98 13.84c-1.03,0.59 -2.35,0.9 -3.6,0.9z"/>
   <path class="fil11" d="M494.89 695.16c-1.03,0 -2.03,-0.21 -2.76,-0.63l-20.32 -11.74c-0.73,-0.42 -1.1,-0.99 -1.1,-1.59 0,-0.72 0.53,-1.48 1.56,-2.08l20.13 -11.62c1.03,-0.59 2.35,-0.9 3.6,-0.9 1.03,0 2.02,0.21 2.76,0.64l20.32 11.73c0.73,0.42 1.1,1 1.1,1.59 0,0.72 -0.53,1.48 -1.56,2.08l-20.13 11.62c-1.03,0.6 -2.35,0.9 -3.6,0.9z"/>
   <path class="fil12" d="M526.26 713.27c-1.04,0 -2.02,-0.21 -2.76,-0.63l-20.32 -11.73c-0.73,-0.43 -1.1,-1 -1.1,-1.6 0,-0.72 0.53,-1.48 1.56,-2.08l20.13 -11.62c1.03,-0.59 2.35,-0.9 3.6,-0.9 1.03,0 2.03,0.21 2.76,0.64l20.32 11.73c0.74,0.43 1.1,1 1.1,1.6 0,0.72 -0.53,1.48 -1.56,2.07l-20.13 11.62c-1.03,0.6 -2.35,0.9 -3.6,0.9z"/>
   <path class="fil13" d="M557.63 731.38c-1.03,0 -2.02,-0.21 -2.76,-0.63l-20.31 -11.73c-0.74,-0.43 -1.11,-1 -1.11,-1.59 0,-0.73 0.53,-1.49 1.56,-2.08l20.13 -11.62c1.03,-0.6 2.35,-0.9 3.6,-0.9 1.04,0 2.03,0.21 2.76,0.63l20.32 11.73c0.74,0.43 1.1,1 1.1,1.59 0,0.73 -0.53,1.49 -1.56,2.09l-20.13 11.62c-1.03,0.59 -2.35,0.89 -3.6,0.89z"/>
   <path class="fil14" d="M589 749.5c-1.03,0 -2.02,-0.21 -2.76,-0.64l-20.31 -11.73c-0.74,-0.42 -1.11,-0.99 -1.11,-1.59 0,-0.73 0.53,-1.49 1.56,-2.08l20.13 -11.62c1.03,-0.6 2.35,-0.9 3.6,-0.9 1.04,0 2.02,0.21 2.77,0.64l20.31 11.72c0.74,0.43 1.1,1 1.1,1.6 0,0.72 -0.53,1.48 -1.56,2.08l-20.13 11.62c-1.03,0.59 -2.35,0.9 -3.6,0.9z"/>
   <path class="fil15" d="M620.37 767.61c-1.03,0 -2.02,-0.21 -2.76,-0.64l-20.31 -11.72c-0.74,-0.43 -1.1,-1 -1.1,-1.6 0,-0.72 0.52,-1.48 1.55,-2.08l20.13 -11.62c1.03,-0.59 2.35,-0.9 3.6,-0.9 1.04,0 2.02,0.21 2.77,0.64l20.31 11.72c0.74,0.43 1.1,1 1.1,1.6 0,0.72 -0.52,1.49 -1.55,2.08l-20.13 11.62c-1.04,0.6 -2.35,0.9 -3.61,0.9z"/>
   <path class="fil16" d="M651.75 785.72c-1.04,0 -2.03,-0.21 -2.77,-0.63l-20.31 -11.73c-0.74,-0.43 -1.1,-1 -1.1,-1.6 0,-0.72 0.53,-1.48 1.55,-2.08l20.13 -11.62c1.03,-0.59 2.35,-0.9 3.6,-0.9 1.04,0 2.03,0.21 2.77,0.64l20.31 11.73c0.74,0.42 1.1,0.99 1.1,1.59 0,0.72 -0.52,1.49 -1.55,2.08l-20.13 11.62c-1.04,0.6 -2.35,0.9 -3.6,0.9z"/>
   <path class="fil17" d="M683.12 803.83c-1.04,0 -2.03,-0.2 -2.77,-0.63l-20.31 -11.73c-0.74,-0.43 -1.1,-1 -1.1,-1.6 0,-0.72 0.53,-1.48 1.55,-2.07l20.14 -11.63c1.02,-0.59 2.34,-0.89 3.59,-0.89 1.04,0 2.03,0.2 2.77,0.63l20.31 11.73c0.74,0.42 1.1,1 1.1,1.6 0,0.72 -0.53,1.48 -1.56,2.07l-20.12 11.62c-1.03,0.6 -2.35,0.9 -3.6,0.9z"/>
   <path class="fil18" d="M714.49 821.95c-1.04,0 -2.03,-0.21 -2.77,-0.64l-20.31 -11.73c-0.74,-0.43 -1.1,-1 -1.1,-1.59 0,-0.73 0.53,-1.49 1.56,-2.08l20.12 -11.63c1.03,-0.59 2.35,-0.89 3.6,-0.89 1.04,0 2.03,0.21 2.77,0.64l20.31 11.72c0.74,0.43 1.1,1 1.1,1.6 0,0.72 -0.52,1.48 -1.55,2.07l-20.14 11.63c-1.02,0.59 -2.34,0.9 -3.59,0.9z"/>
   <path class="fil19" d="M745.86 840.06c-1.04,0 -2.02,-0.21 -2.77,-0.64l-20.31 -11.73c-0.74,-0.42 -1.1,-0.99 -1.1,-1.59 0,-0.73 0.53,-1.49 1.56,-2.08l20.13 -11.62c1.03,-0.6 2.35,-0.9 3.6,-0.9 1.03,0 2.02,0.21 2.76,0.63l20.31 11.73c0.74,0.43 1.1,1 1.11,1.6 0,0.72 -0.53,1.48 -1.56,2.07l-20.13 11.63c-1.03,0.59 -2.35,0.9 -3.6,0.9z"/>
   <path class="fil20" d="M777.23 858.17c-1.03,0 -2.02,-0.21 -2.76,-0.64l-20.32 -11.73c-0.74,-0.42 -1.1,-1 -1.1,-1.59 0,-0.72 0.53,-1.48 1.56,-2.08l20.13 -11.62c1.03,-0.59 2.35,-0.9 3.6,-0.9 1.04,0 2.02,0.21 2.76,0.63l20.31 11.73c0.74,0.43 1.11,1 1.11,1.6 0,0.72 -0.53,1.48 -1.56,2.08l-20.13 11.62c-1.03,0.59 -2.35,0.9 -3.6,0.9z"/>
   <path class="fil21" d="M541.11 686.59c-1.03,0 -2.02,-0.21 -2.76,-0.64l-20.31 -11.73c-0.74,-0.42 -1.11,-0.99 -1.11,-1.59 0,-0.73 0.53,-1.49 1.56,-2.08l20.13 -11.62c1.03,-0.6 2.35,-0.9 3.6,-0.9 1.04,0 2.03,0.21 2.77,0.63l20.31 11.73c0.74,0.43 1.1,1 1.1,1.6 0,0.72 -0.53,1.48 -1.56,2.08l-20.13 11.62c-1.03,0.59 -2.35,0.9 -3.6,0.9z"/>
   <path class="fil22" d="M509.27 668.2c-1.03,0 -2.02,-0.21 -2.76,-0.63l-20.31 -11.73c-0.74,-0.43 -1.1,-1 -1.1,-1.6 0,-0.72 0.52,-1.48 1.56,-2.07l20.12 -11.62c1.03,-0.6 2.35,-0.91 3.6,-0.91 1.04,0 2.03,0.22 2.77,0.64l20.31 11.73c0.74,0.43 1.1,1 1.1,1.59 0,0.73 -0.53,1.49 -1.56,2.09l-20.12 11.62c-1.04,0.59 -2.36,0.89 -3.61,0.89z"/>
   <path class="fil23" d="M477.38 649.79c-1.03,0 -2.02,-0.21 -2.76,-0.64l-43.75 -25.25c-0.74,-0.43 -1.1,-1 -1.1,-1.6 0,-0.72 0.52,-1.49 1.55,-2.08l20.13 -11.62c1.04,-0.59 2.36,-0.9 3.61,-0.9 1.04,0 2.02,0.21 2.76,0.64l43.75 25.26c0.74,0.42 1.1,0.99 1.1,1.59 0,0.72 -0.53,1.49 -1.56,2.08l-20.13 11.62c-1.03,0.6 -2.35,0.9 -3.6,0.9z"/>
   <path class="fil24" d="M499.68 627.4c-1.04,0 -2.03,-0.21 -2.77,-0.64l-35.5 -20.49c-0.74,-0.43 -1.1,-1 -1.1,-1.6 0,-0.72 0.52,-1.48 1.55,-2.08l20.13 -11.62c1.03,-0.59 2.35,-0.9 3.6,-0.9 1.04,0 2.03,0.21 2.77,0.64l35.5 20.5c0.74,0.42 1.1,0.99 1.1,1.59 0,0.72 -0.53,1.49 -1.56,2.08l-20.12 11.62c-1.03,0.6 -2.35,0.9 -3.6,0.9z"/>
   <path class="fil25" d="M572.48 704.7c-1.03,0 -2.02,-0.21 -2.76,-0.64l-20.31 -11.73c-0.74,-0.42 -1.1,-1 -1.1,-1.59 0,-0.72 0.52,-1.48 1.55,-2.08l20.13 -11.62c1.03,-0.59 2.35,-0.9 3.6,-0.9 1.04,0 2.03,0.21 2.77,0.63l20.31 11.73c0.74,0.43 1.1,1 1.1,1.6 0,0.72 -0.53,1.49 -1.55,2.08l-20.14 11.62c-1.03,0.59 -2.34,0.9 -3.6,0.9z"/>
   <path class="fil26" d="M603.86 722.81c-1.04,0 -2.03,-0.21 -2.77,-0.63l-20.31 -11.74c-0.74,-0.42 -1.1,-0.99 -1.1,-1.59 0,-0.72 0.52,-1.48 1.56,-2.08l20.12 -11.62c1.03,-0.59 2.35,-0.9 3.61,-0.9 1.03,0 2.02,0.21 2.76,0.64l20.31 11.73c0.74,0.42 1.1,0.99 1.1,1.59 0,0.72 -0.53,1.48 -1.55,2.08l-20.13 11.62c-1.04,0.59 -2.35,0.9 -3.6,0.9z"/>
   <path class="fil27" d="M635.23 740.92c-1.04,0 -2.03,-0.21 -2.76,-0.64l-20.32 -11.72c-0.74,-0.43 -1.1,-1 -1.1,-1.6 0,-0.72 0.53,-1.48 1.56,-2.08l20.12 -11.62c1.03,-0.59 2.35,-0.9 3.61,-0.9 1.03,0 2.02,0.21 2.76,0.64l20.31 11.73c0.74,0.42 1.11,1 1.1,1.6 0,0.72 -0.53,1.48 -1.56,2.07l-20.12 11.62c-1.03,0.6 -2.35,0.9 -3.6,0.9z"/>
   <path class="fil28" d="M666.59 759.03c-1.03,0 -2.02,-0.21 -2.75,-0.63l-20.32 -11.73c-0.74,-0.43 -1.1,-1 -1.1,-1.6 0,-0.72 0.53,-1.48 1.56,-2.07l20.12 -11.62c1.04,-0.6 2.36,-0.91 3.61,-0.91 1.03,0 2.02,0.22 2.76,0.64l20.32 11.73c0.73,0.43 1.1,1 1.1,1.59 -0.01,0.73 -0.54,1.49 -1.57,2.08l-20.12 11.62c-1.03,0.6 -2.35,0.9 -3.61,0.9z"/>
   <path class="fil29" d="M697.97 777.15c-1.04,0 -2.02,-0.21 -2.76,-0.64l-20.32 -11.73c-0.73,-0.42 -1.1,-0.99 -1.1,-1.59 0,-0.73 0.53,-1.49 1.56,-2.08l20.13 -11.62c1.03,-0.6 2.35,-0.9 3.6,-0.9 1.03,0 2.02,0.21 2.76,0.64l20.32 11.72c0.73,0.43 1.09,1 1.09,1.6 0,0.72 -0.52,1.48 -1.55,2.08l-20.13 11.62c-1.03,0.59 -2.35,0.9 -3.6,0.9z"/>
   <path class="fil30" d="M729.34 795.25c-1.04,0 -2.02,-0.2 -2.76,-0.63l-20.32 -11.73c-0.74,-0.42 -1.1,-0.99 -1.1,-1.59 0,-0.72 0.53,-1.49 1.56,-2.08l20.13 -11.62c1.03,-0.59 2.35,-0.9 3.6,-0.9 1.03,0 2.02,0.21 2.76,0.63l20.32 11.74c0.74,0.42 1.1,0.99 1.1,1.59 0,0.72 -0.53,1.48 -1.56,2.08l-20.13 11.62c-1.03,0.59 -2.35,0.89 -3.6,0.89z"/>
   <path class="fil31" d="M760.71 813.37c-1.04,0 -2.02,-0.21 -2.76,-0.63l-20.31 -11.74c-0.75,-0.42 -1.11,-0.99 -1.11,-1.59 0,-0.72 0.53,-1.48 1.56,-2.08l20.13 -11.62c1.03,-0.59 2.35,-0.9 3.6,-0.9 1.04,0 2.03,0.21 2.77,0.64l20.3 11.73c0.75,0.42 1.11,1 1.11,1.59 0,0.72 -0.53,1.48 -1.56,2.08l-20.13 11.62c-1.03,0.6 -2.35,0.9 -3.6,0.9z"/>
   <path class="fil32" d="M792.08 831.48c-1.03,0 -2.02,-0.21 -2.76,-0.64l-20.31 -11.72c-0.74,-0.43 -1.1,-1 -1.1,-1.6 -0.01,-0.72 0.52,-1.48 1.55,-2.08l20.13 -11.62c1.03,-0.59 2.35,-0.9 3.6,-0.9 1.04,0 2.02,0.21 2.77,0.64l20.31 11.73c0.74,0.42 1.1,1 1.1,1.6 0,0.72 -0.53,1.48 -1.56,2.07l-20.13 11.62c-1.03,0.6 -2.35,0.9 -3.6,0.9z"/>
   <path class="fil33" d="M823.45 849.59c-1.03,0 -2.02,-0.21 -2.76,-0.63l-20.31 -11.73c-0.74,-0.43 -1.1,-1 -1.1,-1.6 0,-0.72 0.52,-1.48 1.55,-2.07l20.13 -11.62c1.03,-0.6 2.35,-0.91 3.6,-0.91 1.04,0 2.03,0.22 2.77,0.64l20.31 11.73c0.74,0.42 1.1,1 1.1,1.59 0,0.73 -0.53,1.49 -1.56,2.09l-20.12 11.62c-1.04,0.59 -2.35,0.89 -3.61,0.89z"/>
   <path class="fil34" d="M879.23 881.79c-1.04,0 -2.03,-0.21 -2.77,-0.63l-44.32 -25.59c-0.74,-0.43 -1.1,-1 -1.1,-1.6 0,-0.72 0.52,-1.48 1.56,-2.08l20.12 -11.62c1.03,-0.59 2.35,-0.9 3.6,-0.9 1.04,0 2.03,0.21 2.76,0.64l44.33 25.59c0.74,0.43 1.1,1 1.1,1.6 0,0.72 -0.53,1.48 -1.56,2.07l-20.13 11.62c-1.02,0.6 -2.34,0.9 -3.59,0.9z"/>
   <path class="fil35" d="M940.3 846.53c-1.03,0 -2.03,-0.21 -2.76,-0.63l-37.41 -21.6c-0.74,-0.43 -1.11,-1 -1.11,-1.6 0.01,-0.72 0.53,-1.48 1.56,-2.08l20.13 -11.62c1.03,-0.59 2.35,-0.9 3.6,-0.9 1.03,0 2.02,0.21 2.76,0.64l37.42 21.6c0.73,0.42 1.1,1 1.1,1.59 -0.01,0.72 -0.53,1.48 -1.56,2.08l-20.13 11.62c-1.03,0.6 -2.35,0.9 -3.6,0.9z"/>
   <path class="fil36" d="M627.43 701.15c-1.04,0 -2.03,-0.2 -2.77,-0.63l-20.31 -11.73c-0.75,-0.43 -1.11,-1 -1.1,-1.6 0,-0.72 0.53,-1.48 1.55,-2.07l20.13 -11.62c1.03,-0.6 2.35,-0.9 3.6,-0.9 1.04,0 2.02,0.2 2.76,0.63l20.31 11.73c0.75,0.43 1.11,1 1.11,1.6 0,0.72 -0.53,1.48 -1.56,2.08l-20.13 11.61c-1.02,0.6 -2.35,0.9 -3.59,0.9z"/>
   <path class="fil37" d="M595.28 682.59c-1.04,0 -2.03,-0.21 -2.77,-0.64l-20.31 -11.72c-0.75,-0.43 -1.11,-1 -1.11,-1.6 0,-0.72 0.53,-1.48 1.56,-2.07l20.13 -11.63c1.03,-0.59 2.35,-0.9 3.6,-0.9 1.04,0 2.02,0.21 2.76,0.64l20.32 11.73c0.74,0.42 1.1,1 1.1,1.59 0,0.72 -0.53,1.49 -1.56,2.08l-20.13 11.63c-1.03,0.59 -2.34,0.89 -3.59,0.89z"/>
   <path class="fil38" d="M563.12 664.03c-1.03,0 -2.03,-0.21 -2.76,-0.64l-20.32 -11.72c-0.73,-0.43 -1.1,-1 -1.1,-1.6 0,-0.72 0.53,-1.49 1.56,-2.08l20.13 -11.62c1.03,-0.59 2.35,-0.9 3.6,-0.9 1.03,0 2.02,0.21 2.76,0.64l20.32 11.72c0.73,0.43 1.1,1 1.1,1.6 0,0.72 -0.53,1.48 -1.57,2.08l-20.12 11.62c-1.03,0.59 -2.35,0.9 -3.6,0.9z"/>
   <path class="fil39" d="M530.97 645.47c-1.04,0 -2.02,-0.21 -2.77,-0.64l-20.31 -11.73c-0.74,-0.43 -1.1,-1 -1.1,-1.59 0,-0.73 0.53,-1.49 1.56,-2.08l20.13 -11.62c1.03,-0.6 2.35,-0.9 3.6,-0.9 1.03,0 2.02,0.21 2.76,0.63l20.31 11.73c0.74,0.43 1.1,1 1.1,1.6 0.01,0.72 -0.52,1.48 -1.55,2.07l-20.13 11.63c-1.03,0.59 -2.35,0.9 -3.6,0.9z"/>
   <path class="fil40" d="M658.79 719.27c-1.03,0 -2.02,-0.21 -2.76,-0.64l-20.31 -11.73c-0.75,-0.43 -1.1,-1 -1.1,-1.59 0,-0.72 0.52,-1.49 1.55,-2.08l20.13 -11.62c1.03,-0.6 2.35,-0.9 3.6,-0.9 1.04,0 2.02,0.21 2.76,0.63l20.32 11.73c0.74,0.43 1.1,1 1.1,1.6 0,0.72 -0.53,1.48 -1.56,2.07l-20.13 11.63c-1.02,0.59 -2.35,0.9 -3.6,0.9z"/>
   <path class="fil41" d="M690.16 737.38c-1.03,0 -2.02,-0.21 -2.76,-0.64l-20.32 -11.73c-0.73,-0.42 -1.09,-0.99 -1.09,-1.59 0,-0.72 0.52,-1.49 1.56,-2.08l20.12 -11.62c1.03,-0.59 2.35,-0.9 3.6,-0.9 1.04,0 2.03,0.21 2.77,0.64l20.31 11.72c0.74,0.43 1.1,1 1.1,1.6 0,0.72 -0.53,1.48 -1.56,2.08l-20.12 11.62c-1.03,0.59 -2.35,0.9 -3.61,0.9z"/>
   <path class="fil42" d="M721.53 755.49c-1.03,0 -2.02,-0.21 -2.76,-0.64l-20.31 -11.72c-0.74,-0.43 -1.1,-1 -1.1,-1.6 0,-0.72 0.53,-1.48 1.56,-2.08l20.12 -11.62c1.03,-0.59 2.35,-0.9 3.6,-0.9 1.04,0 2.03,0.21 2.77,0.64l20.31 11.73c0.74,0.42 1.1,0.99 1.1,1.59 0,0.72 -0.53,1.49 -1.56,2.08l-20.12 11.62c-1.03,0.59 -2.36,0.9 -3.61,0.9z"/>
   <path class="fil43" d="M752.91 773.6c-1.04,0 -2.03,-0.21 -2.76,-0.63l-20.32 -11.73c-0.74,-0.43 -1.11,-1 -1.1,-1.6 0,-0.72 0.53,-1.48 1.56,-2.07l20.12 -11.62c1.03,-0.6 2.35,-0.91 3.6,-0.91 1.04,0 2.03,0.21 2.76,0.64l20.32 11.73c0.74,0.43 1.1,1 1.1,1.59 0,0.72 -0.53,1.49 -1.56,2.08l-20.12 11.62c-1.03,0.6 -2.35,0.9 -3.6,0.9z"/>
   <path class="fil44" d="M784.28 791.71c-1.04,0 -2.03,-0.2 -2.76,-0.63l-20.32 -11.73c-0.74,-0.42 -1.1,-1 -1.1,-1.6 0,-0.72 0.53,-1.48 1.56,-2.07l20.12 -11.62c1.04,-0.6 2.35,-0.9 3.6,-0.9 1.04,0 2.03,0.2 2.77,0.63l20.31 11.73c0.74,0.43 1.1,1 1.1,1.6 0,0.72 -0.52,1.48 -1.56,2.08l-20.12 11.61c-1.03,0.6 -2.35,0.9 -3.6,0.9z"/>
   <path class="fil45" d="M815.65 809.82c-1.04,0 -2.03,-0.2 -2.76,-0.63l-20.32 -11.73c-0.74,-0.43 -1.1,-1 -1.1,-1.59 0,-0.73 0.53,-1.49 1.56,-2.08l20.13 -11.62c1.03,-0.6 2.34,-0.9 3.59,-0.9 1.04,0 2.03,0.21 2.77,0.63l20.31 11.73c0.74,0.43 1.1,1 1.1,1.6 0.01,0.72 -0.52,1.48 -1.55,2.08l-20.13 11.62c-1.03,0.59 -2.35,0.89 -3.6,0.89z"/>
   <path class="fil46" d="M847.02 827.94c-1.03,0 -2.03,-0.21 -2.76,-0.64l-20.32 -11.73c-0.74,-0.42 -1.1,-0.99 -1.1,-1.59 0,-0.72 0.53,-1.49 1.56,-2.08l20.13 -11.62c1.03,-0.6 2.35,-0.9 3.6,-0.9 1.03,0 2.02,0.21 2.76,0.64l20.31 11.72c0.74,0.43 1.11,1 1.11,1.6 0,0.72 -0.53,1.48 -1.56,2.08l-20.13 11.62c-1.03,0.59 -2.35,0.9 -3.6,0.9z"/>
   <path class="fil47" d="M878.39 846.05c-1.03,0 -2.02,-0.21 -2.76,-0.63l-20.32 -11.73c-0.74,-0.43 -1.1,-1.01 -1.1,-1.6 0,-0.73 0.53,-1.48 1.56,-2.08l20.13 -11.62c1.03,-0.59 2.35,-0.9 3.6,-0.9 1.03,0 2.02,0.21 2.76,0.64l20.31 11.72c0.74,0.43 1.11,1 1.11,1.6 0,0.72 -0.53,1.48 -1.56,2.08l-20.13 11.62c-1.03,0.6 -2.35,0.9 -3.6,0.9z"/>
   <path class="fil48" d="M909.76 864.16c-1.04,0 -2.02,-0.21 -2.76,-0.63l-20.32 -11.73c-0.73,-0.43 -1.1,-1 -1.1,-1.6 0,-0.72 0.53,-1.48 1.56,-2.08l20.13 -11.62c1.03,-0.59 2.35,-0.9 3.6,-0.9 1.03,0 2.02,0.21 2.76,0.64l20.32 11.73c0.73,0.42 1.1,1 1.1,1.59 0,0.72 -0.53,1.48 -1.56,2.08l-20.13 11.62c-1.03,0.6 -2.35,0.9 -3.6,0.9z"/>
   <path class="fil49" d="M610.9 656.36c-1.03,0 -2.02,-0.22 -2.76,-0.64l-20.31 -11.73c-0.74,-0.43 -1.11,-1 -1.11,-1.59 0,-0.73 0.53,-1.49 1.56,-2.08l20.13 -11.63c1.03,-0.59 2.35,-0.9 3.6,-0.9 1.04,0 2.03,0.21 2.77,0.64l20.31 11.73c0.74,0.43 1.1,1 1.1,1.6 0,0.72 -0.53,1.48 -1.56,2.07l-20.13 11.63c-1.03,0.59 -2.35,0.9 -3.6,0.9z"/>
   <path class="fil50" d="M579.69 638.33c-1.04,0 -2.02,-0.21 -2.76,-0.63l-20.32 -11.73c-0.74,-0.43 -1.1,-1 -1.1,-1.6 0,-0.72 0.53,-1.48 1.56,-2.07l20.13 -11.63c1.03,-0.59 2.34,-0.9 3.59,-0.9 1.04,0 2.03,0.22 2.77,0.64l20.31 11.73c0.74,0.42 1.11,1 1.11,1.59 0,0.73 -0.53,1.49 -1.56,2.09l-20.13 11.62c-1.03,0.59 -2.35,0.89 -3.6,0.89z"/>
   <path class="fil51" d="M548.47 620.31c-1.03,0 -2.02,-0.21 -2.76,-0.63l-20.31 -11.73c-0.74,-0.43 -1.1,-1 -1.1,-1.6 0,-0.72 0.53,-1.48 1.55,-2.08l20.13 -11.61c1.03,-0.6 2.35,-0.91 3.6,-0.91 1.04,0 2.03,0.21 2.77,0.64l20.31 11.73c0.74,0.43 1.1,1 1.1,1.59 0,0.72 -0.53,1.48 -1.56,2.08l-20.12 11.62c-1.04,0.59 -2.36,0.9 -3.61,0.9z"/>
   <path class="fil52" d="M517.26 602.29c-1.04,0 -2.02,-0.21 -2.77,-0.64l-20.31 -11.73c-0.74,-0.42 -1.1,-0.99 -1.1,-1.59 0,-0.72 0.53,-1.48 1.56,-2.08l20.13 -11.62c1.03,-0.59 2.35,-0.9 3.6,-0.9 1.03,0 2.02,0.21 2.76,0.64l20.31 11.72c0.74,0.43 1.1,1 1.11,1.6 0,0.72 -0.53,1.49 -1.56,2.08l-20.13 11.62c-1.03,0.59 -2.35,0.9 -3.6,0.9z"/>
   <path class="fil53" d="M549.36 583.76c-1.04,0 -2.03,-0.21 -2.77,-0.64l-20.31 -11.73c-0.74,-0.42 -1.1,-0.99 -1.1,-1.59 0,-0.72 0.52,-1.49 1.56,-2.08l6.65 -3.84c1.03,-0.59 2.35,-0.9 3.6,-0.9 1.04,0 2.02,0.21 2.77,0.63l20.31 11.73c0.74,0.43 1.1,1 1.1,1.6 0,0.72 -0.53,1.48 -1.56,2.08l-6.65 3.84c-1.03,0.59 -2.35,0.9 -3.6,0.9z"/>
   <path class="fil54" d="M590.09 607.27c-1.03,0 -2.02,-0.2 -2.76,-0.63l-20.31 -11.73c-0.74,-0.43 -1.11,-1 -1.11,-1.59 0,-0.73 0.53,-1.49 1.56,-2.08l6.66 -3.84c1.02,-0.6 2.34,-0.91 3.6,-0.91 1.03,0 2.02,0.22 2.76,0.64l20.31 11.73c0.74,0.43 1.1,1 1.1,1.6 0,0.72 -0.52,1.48 -1.55,2.08l-6.66 3.84c-1.03,0.59 -2.35,0.89 -3.6,0.89z"/>
   <path class="fil55" d="M621.18 625.23c-1.04,0 -2.02,-0.22 -2.76,-0.64l-20.32 -11.73c-0.74,-0.43 -1.1,-1 -1.1,-1.6 0,-0.72 0.53,-1.48 1.56,-2.08l6.65 -3.84c1.03,-0.59 2.35,-0.9 3.6,-0.9 1.04,0 2.03,0.21 2.76,0.64l20.32 11.73c0.74,0.42 1.1,1 1.1,1.6 0,0.72 -0.53,1.48 -1.56,2.07l-6.65 3.84c-1.03,0.6 -2.35,0.91 -3.6,0.91z"/>
   <path class="fil56" d="M652.26 643.17c-1.03,0 -2.02,-0.21 -2.76,-0.64l-20.32 -11.72c-0.73,-0.43 -1.1,-1 -1.1,-1.6 0,-0.72 0.53,-1.48 1.56,-2.08l6.66 -3.84c1.03,-0.59 2.34,-0.9 3.59,-0.9 1.04,0 2.03,0.21 2.77,0.64l20.31 11.72c0.74,0.43 1.1,1 1.1,1.6 0,0.72 -0.52,1.48 -1.56,2.08l-6.65 3.84c-1.03,0.59 -2.35,0.9 -3.6,0.9z"/>
   <path class="fil57" d="M683.34 661.11c-1.03,0 -2.02,-0.2 -2.76,-0.63l-20.31 -11.73c-0.74,-0.43 -1.1,-1 -1.1,-1.59 0,-0.73 0.53,-1.49 1.56,-2.08l6.65 -3.84c1.03,-0.6 2.35,-0.91 3.6,-0.91 1.04,0 2.02,0.22 2.77,0.64l20.31 11.73c0.74,0.43 1.1,1 1.1,1.6 0,0.72 -0.53,1.48 -1.56,2.08l-6.65 3.83c-1.03,0.6 -2.35,0.9 -3.61,0.9z"/>
   <path class="fil58" d="M856.89 761.31c-1.04,0 -2.02,-0.21 -2.76,-0.63l-20.32 -11.73c-0.74,-0.43 -1.1,-1 -1.1,-1.6 0,-0.72 0.53,-1.48 1.56,-2.08l6.65 -3.84c1.03,-0.59 2.35,-0.9 3.6,-0.9 1.04,0 2.03,0.21 2.76,0.64l20.32 11.73c0.74,0.42 1.1,1 1.1,1.59 0,0.72 -0.53,1.48 -1.56,2.08l-6.65 3.84c-1.03,0.6 -2.35,0.9 -3.6,0.9z"/>
   <path class="fil59" d="M887.97 779.26c-1.03,0 -2.02,-0.21 -2.76,-0.64l-20.31 -11.73c-0.74,-0.42 -1.11,-0.99 -1.11,-1.59 0,-0.73 0.53,-1.49 1.56,-2.08l6.66 -3.84c1.03,-0.59 2.35,-0.9 3.6,-0.9 1.03,0 2.02,0.21 2.76,0.64l20.31 11.72c0.74,0.43 1.1,1 1.1,1.6 0,0.72 -0.52,1.48 -1.55,2.08l-6.66 3.84c-1.03,0.59 -2.35,0.9 -3.6,0.9z"/>
   <path class="fil60" d="M919.06 797.2c-1.03,0 -2.02,-0.2 -2.77,-0.63l-20.3 -11.73c-0.75,-0.42 -1.11,-1 -1.11,-1.59 0,-0.73 0.53,-1.49 1.56,-2.08l6.65 -3.84c1.03,-0.6 2.35,-0.9 3.6,-0.9 1.04,0 2.03,0.2 2.77,0.63l20.31 11.73c0.74,0.42 1.1,1 1.1,1.59 0,0.73 -0.53,1.49 -1.56,2.08l-6.65 3.84c-1.03,0.6 -2.35,0.9 -3.6,0.9z"/>
   <path class="fil61" d="M950.14 815.15c-1.03,0 -2.02,-0.21 -2.76,-0.63l-20.32 -11.73c-0.73,-0.43 -1.1,-1 -1.1,-1.6 0.01,-0.72 0.53,-1.48 1.57,-2.08l6.64 -3.84c1.04,-0.59 2.35,-0.9 3.6,-0.9 1.04,0 2.03,0.21 2.77,0.64l20.31 11.73c0.74,0.43 1.1,0.99 1.1,1.59 0,0.72 -0.52,1.49 -1.55,2.08l-6.65 3.84c-1.04,0.6 -2.36,0.9 -3.61,0.9z"/>
   <path class="fil62" d="M642.28 674.47c-1.04,0 -2.03,-0.21 -2.77,-0.64l-20.31 -11.72c-0.74,-0.43 -1.1,-1 -1.1,-1.6 -0.01,-0.72 0.52,-1.49 1.55,-2.08l20.13 -11.62c1.03,-0.6 2.35,-0.9 3.6,-0.9 1.04,0 2.03,0.21 2.77,0.63l20.31 11.73c0.74,0.43 1.1,1 1.1,1.6 0,0.72 -0.52,1.48 -1.56,2.08l-20.13 11.62c-1.03,0.59 -2.34,0.9 -3.59,0.9z"/>
   <path class="fil63" d="M673.65 692.58c-1.04,0 -2.03,-0.21 -2.77,-0.64l-20.31 -11.72c-0.74,-0.43 -1.1,-1 -1.1,-1.6 0,-0.72 0.52,-1.48 1.56,-2.08l20.13 -11.62c1.02,-0.59 2.35,-0.9 3.59,-0.9 1.04,0 2.03,0.21 2.77,0.64l20.31 11.72c0.74,0.43 1.1,1 1.1,1.6 0,0.72 -0.53,1.49 -1.55,2.08l-20.13 11.62c-1.03,0.6 -2.35,0.9 -3.6,0.9z"/>
   <path class="fil64" d="M705.02 710.69c-1.04,0 -2.03,-0.21 -2.77,-0.64l-20.31 -11.72c-0.74,-0.43 -1.1,-1 -1.1,-1.6 0,-0.72 0.53,-1.48 1.56,-2.07l20.13 -11.63c1.02,-0.59 2.35,-0.9 3.59,-0.9 1.04,0 2.03,0.21 2.77,0.64l20.31 11.73c0.74,0.43 1.1,1 1.1,1.59 0,0.73 -0.53,1.49 -1.55,2.08l-20.13 11.62c-1.03,0.6 -2.35,0.9 -3.6,0.9z"/>
   <path class="fil65" d="M736.39 728.8c-1.04,0 -2.03,-0.21 -2.77,-0.63l-20.31 -11.73c-0.74,-0.43 -1.1,-1 -1.1,-1.6 0,-0.72 0.53,-1.48 1.56,-2.08l20.12 -11.61c1.04,-0.6 2.35,-0.9 3.6,-0.9 1.04,0 2.03,0.2 2.77,0.63l20.31 11.73c0.74,0.43 1.1,1 1.1,1.6 0,0.72 -0.52,1.48 -1.55,2.07l-20.13 11.62c-1.03,0.6 -2.35,0.9 -3.6,0.9z"/>
   <path class="fil66" d="M767.76 746.92c-1.04,0 -2.03,-0.21 -2.77,-0.64l-20.31 -11.73c-0.74,-0.43 -1.1,-1 -1.1,-1.59 0,-0.73 0.53,-1.49 1.55,-2.09l20.14 -11.61c1.03,-0.6 2.34,-0.9 3.6,-0.9 1.03,0 2.02,0.21 2.76,0.63l20.31 11.73c0.74,0.43 1.1,1 1.1,1.6 0,0.72 -0.52,1.48 -1.55,2.07l-20.13 11.62c-1.03,0.6 -2.35,0.91 -3.6,0.91z"/>
   <path class="fil67" d="M799.13 765.03c-1.04,0 -2.02,-0.21 -2.77,-0.64l-20.31 -11.73c-0.74,-0.42 -1.1,-0.99 -1.1,-1.59 0,-0.72 0.53,-1.49 1.56,-2.08l20.13 -11.62c1.03,-0.6 2.35,-0.9 3.6,-0.9 1.03,0 2.02,0.21 2.76,0.63l20.31 11.73c0.75,0.43 1.11,1 1.11,1.6 0,0.72 -0.53,1.48 -1.56,2.08l-20.13 11.62c-1.03,0.59 -2.35,0.9 -3.6,0.9z"/>
   <path class="fil68" d="M830.5 783.14c-1.04,0 -2.02,-0.21 -2.76,-0.64l-20.31 -11.72c-0.75,-0.43 -1.11,-1 -1.11,-1.6 0,-0.72 0.53,-1.48 1.56,-2.08l20.13 -11.62c1.03,-0.59 2.35,-0.9 3.6,-0.9 1.04,0 2.02,0.21 2.76,0.64l20.31 11.73c0.75,0.42 1.11,0.99 1.11,1.59 0,0.72 -0.53,1.49 -1.56,2.08l-20.13 11.62c-1.03,0.6 -2.35,0.9 -3.6,0.9z"/>
   <path class="fil69" d="M861.87 801.25c-1.03,0 -2.02,-0.21 -2.76,-0.63l-20.31 -11.73c-0.74,-0.43 -1.11,-1 -1.11,-1.6 0,-0.72 0.53,-1.48 1.56,-2.08l20.13 -11.62c1.03,-0.59 2.35,-0.89 3.6,-0.89 1.04,0 2.02,0.21 2.76,0.63l20.32 11.73c0.74,0.42 1.1,1 1.1,1.59 0,0.73 -0.53,1.49 -1.56,2.08l-20.13 11.62c-1.03,0.6 -2.35,0.9 -3.6,0.9z"/>
   <path class="fil70" d="M893.24 819.36c-1.04,0 -2.02,-0.2 -2.76,-0.63l-20.32 -11.73c-0.73,-0.43 -1.09,-1 -1.09,-1.6 0,-0.72 0.52,-1.48 1.55,-2.07l20.13 -11.62c1.03,-0.6 2.35,-0.9 3.61,-0.9 1.03,0 2.02,0.2 2.75,0.63l20.32 11.73c0.74,0.43 1.1,1 1.1,1.6 0,0.72 -0.53,1.48 -1.56,2.08l-20.13 11.61c-1.03,0.6 -2.35,0.9 -3.6,0.9z"/>
   <path class="fil71" d="M462.92 676.7c-1.03,0 -2.02,-0.2 -2.76,-0.63l-59.83 -34.54c-0.74,-0.43 -1.1,-1 -1.1,-1.6 0,-0.72 0.53,-1.48 1.56,-2.08l20.13 -11.62c1.03,-0.59 2.34,-0.9 3.59,-0.9 1.04,0 2.03,0.21 2.77,0.64l59.83 34.54c0.73,0.43 1.1,1 1.1,1.6 0,0.72 -0.53,1.48 -1.56,2.07l-20.13 11.62c-1.03,0.6 -2.35,0.9 -3.6,0.9z"/>
   <path class="fil72" d="M848.33 899.21c-1.04,0 -2.03,-0.21 -2.77,-0.64l-59.83 -34.54c-0.74,-0.42 -1.1,-0.99 -1.1,-1.59 0,-0.72 0.53,-1.48 1.56,-2.08l20.13 -11.62c1.03,-0.59 2.35,-0.9 3.6,-0.9 1.03,0 2.02,0.21 2.76,0.64l59.83 34.54c0.74,0.43 1.1,1 1.1,1.59 0,0.73 -0.53,1.49 -1.56,2.08l-20.13 11.63c-1.03,0.59 -2.34,0.89 -3.59,0.89z"/>
   <path class="fil73" d="M722.87 866.79c-1.04,0 -2.03,-0.21 -2.77,-0.64l-20.31 -11.73c-0.74,-0.43 -1.1,-1 -1.1,-1.59 0,-0.72 0.52,-1.49 1.55,-2.08l23.98 -13.84c1.03,-0.6 2.35,-0.9 3.6,-0.9 1.04,0 2.03,0.2 2.76,0.63l20.32 11.73c0.74,0.43 1.1,1 1.1,1.6 0,0.72 -0.53,1.48 -1.56,2.07l-23.98 13.85c-1.03,0.59 -2.34,0.9 -3.59,0.9z"/>
   <path class="fil74" d="M495.05 735.26c-1.04,0 -2.02,-0.21 -2.77,-0.64l-32.49 -18.75c-0.73,-0.43 -1.1,-1 -1.1,-1.6 0,-0.72 0.53,-1.48 1.57,-2.08l23.97 -13.84c1.03,-0.6 2.35,-0.9 3.6,-0.9 1.04,0 2.03,0.21 2.76,0.63l32.49 18.76c0.74,0.43 1.1,1 1.1,1.6 0,0.72 -0.52,1.48 -1.55,2.08l-23.98 13.84c-1.03,0.59 -2.35,0.9 -3.6,0.9z"/>
   <path class="fil75" d="M692.64 849.34c-1.04,0 -2.03,-0.21 -2.76,-0.64l-32.49 -18.76c-0.74,-0.42 -1.1,-0.99 -1.1,-1.59 0,-0.72 0.53,-1.48 1.55,-2.08l23.98 -13.84c1.03,-0.6 2.35,-0.9 3.6,-0.9 1.04,0 2.02,0.21 2.77,0.64l32.48 18.75c0.74,0.43 1.11,1 1.11,1.59 -0.01,0.73 -0.54,1.49 -1.57,2.08l-23.97 13.85c-1.03,0.59 -2.35,0.9 -3.6,0.9z"/>
   <path class="fil76" d="M537.59 760.78c-0.02,-0.01 -0.03,-0.02 -0.05,-0.03l-32.48 -18.75c-0.74,-0.43 -1.1,-1 -1.1,-1.6 0,-0.72 0.53,-1.48 1.56,-2.08l23.97 -13.84c1.03,-0.59 2.35,-0.9 3.6,-0.9 1.04,0 2.03,0.21 2.77,0.64l23.53 13.58 -23.31 -13.45 -30.8 17.78 32.31 18.65z"/>
   <path class="fil77" d="M649.7 824.43c-1.15,0 -2.29,-0.25 -3.17,-0.76l-108.94 -62.89 -32.31 -18.65 30.8 -17.78 23.31 13.45 117.94 68.09c0.87,0.51 1.31,1.17 1.31,1.83 0,0.67 -0.44,1.33 -1.31,1.84l-24.45 14.11c-0.88,0.51 -2.03,0.76 -3.18,0.76z"/>
   <path class="fil78" d="M817.27 921.47c-0.85,0 -1.66,-0.17 -2.26,-0.52l-22.63 -13.07c-0.61,-0.35 -0.9,-0.82 -0.9,-1.31 0,-0.59 0.43,-1.21 1.27,-1.7l9.81 -5.66c0.85,-0.49 1.93,-0.74 2.95,-0.74 0.85,0 1.66,0.17 2.27,0.52l22.62 13.07c0.61,0.35 0.91,0.81 0.91,1.3 0,0.6 -0.44,1.22 -1.28,1.7l-9.81 5.67c-0.84,0.49 -1.92,0.74 -2.95,0.74z"/>
   <path class="fil79" d="M785.64 903.2c-0.84,0 -1.66,-0.17 -2.27,-0.51l-22.62 -13.07c-0.61,-0.35 -0.9,-0.82 -0.9,-1.31 0,-0.59 0.43,-1.22 1.27,-1.7l9.81 -5.67c0.85,-0.48 1.93,-0.73 2.95,-0.73 0.85,0 1.66,0.17 2.27,0.52l22.63 13.06c0.6,0.35 0.9,0.82 0.9,1.31 0,0.6 -0.43,1.22 -1.28,1.71l-9.81 5.66c-0.84,0.49 -1.92,0.73 -2.95,0.73z"/>
   <path class="fil80" d="M754.27 885.09c-0.85,0 -1.66,-0.17 -2.26,-0.52l-22.63 -13.06c-0.61,-0.35 -0.9,-0.82 -0.9,-1.31 0,-0.59 0.43,-1.22 1.27,-1.7l9.81 -5.67c0.84,-0.49 1.93,-0.73 2.95,-0.73 0.85,0 1.66,0.17 2.27,0.51l22.62 13.07c0.61,0.35 0.91,0.82 0.91,1.31 0,0.59 -0.44,1.22 -1.28,1.7l-9.81 5.67c-0.84,0.48 -1.92,0.73 -2.95,0.73z"/>
   <path class="fil81" d="M802.96 893.2c-0.84,0 -1.66,-0.17 -2.26,-0.52l-22.62 -13.06c-0.61,-0.35 -0.91,-0.82 -0.91,-1.31 0,-0.59 0.44,-1.21 1.28,-1.7l9.81 -5.67c0.84,-0.49 1.92,-0.74 2.95,-0.74 0.85,0 1.65,0.18 2.26,0.53l22.63 13.06c0.6,0.35 0.9,0.82 0.9,1.31 0,0.59 -0.43,1.21 -1.28,1.7l-9.81 5.66c-0.84,0.49 -1.92,0.74 -2.95,0.74z"/>
   <path class="fil82" d="M1133.72 836.41c-2.69,0 -5.51,-0.74 -8.24,-2.32l-0.7 -0.41 -598.63 -345.62c-0.44,-0.25 -0.88,-0.53 -1.3,-0.82 -8.56,-5.87 -12.88,-18.39 -9.68,-28.78l135.53 -440.06c1.84,-5.99 5.79,-10.02 10.53,-11.55 1.4,-0.45 2.87,-0.69 4.38,-0.69 2.69,0 5.5,0.75 8.24,2.33l599.32 346.02c9.43,5.44 14.35,18.7 10.99,29.61l-135.54 440.06c-1.77,5.75 -5.48,9.7 -9.97,11.35 -1.57,0.58 -3.22,0.88 -4.93,0.88zm-606.73 -375.09c0,8.63 4.43,17.36 11.53,21.46l581.31 335.9c2.61,1.51 5.31,2.22 7.89,2.22 6.31,0 11.97,-4.29 14.25,-11.71l129.59 -420.69c0.68,-2.22 1.01,-4.54 1.01,-6.88 0,-8.63 -4.43,-17.35 -11.53,-21.46l-581.31 -335.89c-2.62,-1.51 -5.31,-2.23 -7.89,-2.23 -6.32,0 -11.97,4.29 -14.26,11.71l-129.58 420.69c-0.69,2.22 -1.01,4.55 -1.01,6.88z"/>
   <path class="fil83" d="M1127.72 820.9c-2.58,0 -5.28,-0.71 -7.89,-2.22l-581.31 -335.9c-7.1,-4.1 -11.53,-12.83 -11.53,-21.46 0,-2.33 0.33,-4.66 1.01,-6.88l129.58 -420.69c2.28,-7.42 7.94,-11.71 14.26,-11.71 2.58,0 5.27,0.72 7.89,2.23l581.31 335.89c7.1,4.1 11.53,12.83 11.53,21.46 0,2.34 -0.33,4.66 -1.01,6.88l-129.59 420.69c-2.27,7.42 -7.94,11.71 -14.25,11.71zm-493.72 -365.69c0.02,5.9 3.05,11.87 7.91,14.68l393.52 227.2c1.79,1.04 3.64,1.52 5.41,1.52 4.33,0 8.22,-2.94 9.79,-8.03l5.85 -19.01 32.12 18.54c1.79,1.04 3.64,1.53 5.41,1.53 4.33,0 8.22,-2.94 9.78,-8.03l89 -288.95c2.2,-7.16 -1.03,-15.87 -7.22,-19.44l-393.52 -227.2c-1.79,-1.03 -3.63,-1.52 -5.41,-1.52 -4.33,0 -8.21,2.94 -9.78,8.03l-5.86 19.01 -32.11 -18.54c-1.8,-1.04 -3.65,-1.53 -5.42,-1.53 -4.33,0 -8.21,2.94 -9.78,8.03l-88.99 288.94c-0.48,1.55 -0.7,3.15 -0.7,4.77z"/>
   <path class="fil84" d="M1094.01 691.64c-1.77,0 -3.62,-0.49 -5.41,-1.53l-32.12 -18.54 83.14 -269.93c0.47,-1.54 0.69,-3.15 0.69,-4.76 -0.01,-5.91 -3.05,-11.88 -7.91,-14.69l-361.4 -208.65 5.86 -19.01c1.57,-5.09 5.45,-8.03 9.78,-8.03 1.78,0 3.62,0.49 5.41,1.52l393.52 227.2c6.19,3.57 9.42,12.28 7.22,19.44l-89 288.95c-1.56,5.09 -5.45,8.03 -9.78,8.03z"/>
   <path class="fil85" d="M1040.84 698.61c-1.77,0 -3.62,-0.48 -5.41,-1.52l-393.52 -227.2c-4.86,-2.81 -7.89,-8.78 -7.91,-14.68 0,-1.62 0.22,-3.22 0.7,-4.77l88.99 -288.94c1.57,-5.09 5.45,-8.03 9.78,-8.03 1.77,0 3.62,0.49 5.42,1.53l393.51 227.19c4.86,2.81 7.9,8.78 7.91,14.69 0,1.61 -0.22,3.22 -0.69,4.76l-83.14 269.93 -5.85 19.01c-1.57,5.09 -5.46,8.03 -9.79,8.03z"/>
   <path class="fil86" d="M1132.41 382.19l-393.52 -227.19c-3.88,-2.24 -8,-1.93 -11.08,0.38 1.86,-0.06 3.79,0.36 5.69,1.45l393.52 227.2c6.18,3.57 9.41,12.28 7.21,19.44l-88.99 288.94c-0.83,2.68 -2.3,4.76 -4.13,6.13 4.22,-0.12 7.98,-2.98 9.52,-7.95l88.99 -288.95c2.2,-7.17 -1.03,-15.87 -7.21,-19.45z"/>
   <path class="fil87" d="M539.11 933.04c-5.42,0 -10.61,-1.13 -14.58,-3.42l-157.66 -91.02c-4.18,-2.41 -6.48,-5.86 -6.48,-9.71 0,-4.47 3.17,-8.86 8.69,-12.06l81.16 -46.85c5.38,-3.11 12.13,-4.69 18.57,-4.69 5.41,0 10.61,1.12 14.58,3.41l157.66 91.02c4.18,2.41 6.48,5.86 6.48,9.71 0,4.47 -3.17,8.87 -8.7,12.06l-81.16 46.85c-5.38,3.11 -12.13,4.7 -18.56,4.7zm-70.23 -163.15c-5.7,0 -11.75,1.37 -16.36,4.03l-81.16 46.86c-4.08,2.35 -6.42,5.31 -6.42,8.11 0,2.76 2.29,4.66 4.21,5.77l157.65 91.02c3.21,1.85 7.61,2.75 12.24,2.75 5.7,0 11.75,-1.36 16.36,-4.03l81.15 -46.85c4.09,-2.36 6.43,-5.32 6.43,-8.12 0,-2.76 -2.29,-4.66 -4.21,-5.76l-157.66 -91.03c-3.2,-1.85 -7.6,-2.75 -12.23,-2.75z"/>
   <path class="fil88" d="M834.73 306.59l-24.32 -14.05c-2.26,-1.3 -3.47,-4.43 -2.71,-6.99 0.77,-2.57 3.22,-3.58 5.47,-2.28l24.33 14.05c2.26,1.3 3.47,4.43 2.71,6.99 -0.77,2.56 -3.22,3.58 -5.48,2.28z"/>
   <path class="fil89" d="M892.69 340.05l-35.88 -20.72c-2.26,-1.3 -3.47,-4.43 -2.7,-6.99 0.76,-2.56 3.21,-3.58 5.47,-2.28l35.87 20.71c2.26,1.31 3.47,4.44 2.71,7 -0.77,2.56 -3.22,3.58 -5.47,2.28z"/>
   <path class="fil90" d="M785.67 414.9l-24.33 -14.04c-2.26,-1.31 -3.47,-4.44 -2.7,-7 0.76,-2.56 3.21,-3.58 5.47,-2.28l24.33 14.05c2.25,1.31 3.46,4.44 2.7,7 -0.76,2.55 -3.21,3.57 -5.47,2.27z"/>
   <path class="fil91" d="M837.33 444.73l-35.88 -20.71c-2.25,-1.31 -3.46,-4.44 -2.69,-7 0.75,-2.56 3.2,-3.58 5.46,-2.27l35.87 20.7c2.26,1.31 3.47,4.44 2.71,7 -0.76,2.56 -3.21,3.58 -5.47,2.28z"/>
   <path class="fil92" d="M761.86 287.28l-15.2 -8.77c-2.26,-1.3 -3.47,-4.44 -2.71,-6.99 0.77,-2.57 3.22,-3.59 5.48,-2.28l15.19 8.77c2.26,1.3 3.47,4.44 2.71,7 -0.77,2.56 -3.22,3.58 -5.47,2.27z"/>
   <path class="fil93" d="M807.59 336.46l-46.44 -26.81c-2.25,-1.3 -3.47,-4.43 -2.7,-7 0.76,-2.56 3.21,-3.57 5.47,-2.27l46.43 26.81c2.26,1.3 3.47,4.43 2.71,7 -0.76,2.56 -3.21,3.57 -5.47,2.27z"/>
   <path class="fil94" d="M764.76 357.28l-15.2 -8.78c-2.26,-1.3 -3.47,-4.43 -2.7,-6.99 0.76,-2.56 3.21,-3.58 5.47,-2.28l15.2 8.78c2.26,1.31 3.46,4.43 2.7,7 -0.76,2.55 -3.22,3.58 -5.47,2.27z"/>
   <path class="fil95" d="M842.93 493.51l-40.59 -23.44c-2.26,-1.3 -3.47,-4.44 -2.71,-6.99 0.77,-2.57 3.22,-3.58 5.47,-2.28l40.59 23.44c2.26,1.3 3.47,4.43 2.71,6.99 -0.76,2.56 -3.22,3.58 -5.47,2.28z"/>
   <path class="fil96" d="M747.73 392.99l-9.76 -5.63c-2.26,-1.3 -3.47,-4.43 -2.7,-6.99 0.76,-2.57 3.21,-3.58 5.47,-2.28l9.75 5.63c2.26,1.31 3.47,4.44 2.71,7 -0.77,2.56 -3.22,3.58 -5.47,2.27z"/>
   <path class="fil97" d="M738.49 433.21l-12.11 -6.99c-2.26,-1.31 -3.47,-4.44 -2.71,-7 0.77,-2.56 3.22,-3.58 5.48,-2.27l12.11 6.99c2.26,1.3 3.47,4.43 2.7,6.99 -0.76,2.57 -3.21,3.58 -5.47,2.28z"/>
   <path class="fil98" d="M785.62 460.42l-31.94 -18.44c-2.25,-1.3 -3.47,-4.44 -2.7,-6.99 0.76,-2.56 3.21,-3.58 5.47,-2.28l31.94 18.44c2.25,1.3 3.47,4.43 2.7,7 -0.76,2.56 -3.21,3.58 -5.47,2.27z"/>
   <path class="fil99" d="M743.55 458.9l-22.97 -13.25c-2.25,-1.31 -3.47,-4.44 -2.7,-7 0.76,-2.56 3.21,-3.58 5.47,-2.28l22.96 13.26c2.26,1.3 3.47,4.44 2.71,6.99 -0.76,2.57 -3.21,3.59 -5.47,2.28z"/>
   <path class="fil100" d="M877.76 513.71l-14.76 -8.51c-2.25,-1.3 -3.46,-4.44 -2.7,-7 0.77,-2.56 3.22,-3.58 5.47,-2.27l14.75 8.51c2.26,1.3 3.47,4.43 2.71,7l0 0c-0.77,2.56 -3.22,3.57 -5.47,2.27z"/>
   <path class="fil101" d="M821.29 389.92l-40.59 -23.43c-2.26,-1.31 -3.47,-4.44 -2.7,-7 0.76,-2.56 3.21,-3.58 5.47,-2.28l40.59 23.44c2.26,1.3 3.47,4.43 2.7,7 -0.76,2.56 -3.21,3.58 -5.47,2.27z"/>
   <path class="fil102" d="M826.1 369.92l-70.74 -40.84c-2.26,-1.3 -3.47,-4.44 -2.71,-7 0.77,-2.56 3.22,-3.58 5.47,-2.27l70.75 40.84c2.26,1.31 3.47,4.44 2.7,7 -0.76,2.56 -3.21,3.58 -5.47,2.27z"/>
   <path class="fil102" d="M784.36 391.37l-40.6 -23.44c-2.25,-1.3 -3.47,-4.43 -2.7,-6.99 0.77,-2.56 3.21,-3.58 5.47,-2.28l40.59 23.44c2.26,1.3 3.47,4.43 2.71,6.99 -0.77,2.56 -3.21,3.59 -5.47,2.28z"/>
   <path class="fil102" d="M852.08 407.69l-14.75 -8.51c-2.26,-1.3 -3.47,-4.43 -2.7,-6.99 0.77,-2.57 3.21,-3.58 5.46,-2.28l14.76 8.51c2.25,1.31 3.47,4.44 2.7,7 -0.76,2.56 -3.21,3.58 -5.47,2.27z"/>
   <path class="fil102" d="M1002.1 403.22l-87.34 -50.43c-2.26,-1.3 -3.46,-4.43 -2.7,-6.99 0.76,-2.56 3.21,-3.58 5.47,-2.28l87.34 50.42c2.26,1.31 3.46,4.44 2.71,7 -0.77,2.56 -3.22,3.58 -5.48,2.28z"/>
   <path class="fil103" d="M780.97 434.96l-48.8 -28.17c-2.25,-1.3 -3.47,-4.44 -2.7,-6.99 0.76,-2.57 3.21,-3.59 5.47,-2.28l48.79 28.17c2.26,1.3 3.47,4.43 2.71,6.99 -0.77,2.56 -3.22,3.58 -5.47,2.28z"/>
   <path class="fil103" d="M788.33 279.79l-35.87 -20.71c-2.26,-1.3 -3.48,-4.43 -2.71,-6.99 0.77,-2.57 3.21,-3.58 5.47,-2.28l35.87 20.71c2.26,1.3 3.47,4.44 2.71,6.99 -0.76,2.57 -3.21,3.59 -5.47,2.28z"/>
   <path class="fil102" d="M736.05 477.34l-41.55 -23.98c-2.26,-1.3 -3.47,-4.44 -2.71,-7 0.77,-2.56 3.22,-3.58 5.47,-2.27l41.55 23.98c2.26,1.31 3.47,4.44 2.71,7 -0.77,2.56 -3.22,3.57 -5.47,2.27z"/>
   <path class="fil7" d="M1002.46 350.34l-17.78 -10.26c-1.65,-0.96 -2.54,-3.25 -1.98,-5.12 0.56,-1.87 2.35,-2.62 4,-1.66l17.78 10.26c1.65,0.95 2.53,3.24 1.97,5.11 -0.55,1.87 -2.34,2.62 -3.99,1.67z"/>
   <path class="fil7" d="M1036.38 369.92l-17.79 -10.26c-1.65,-0.96 -2.53,-3.25 -1.97,-5.12 0.55,-1.87 2.35,-2.62 3.99,-1.66l17.79 10.27c1.65,0.95 2.53,3.24 1.98,5.11 -0.56,1.87 -2.36,2.62 -4,1.66z"/>
   <path class="fil7" d="M1070.29 389.51l-17.78 -10.27c-1.65,-0.95 -2.53,-3.24 -1.97,-5.11 0.56,-1.88 2.35,-2.62 3.99,-1.67l17.79 10.27c1.65,0.96 2.53,3.24 1.97,5.12 -0.55,1.87 -2.34,2.61 -4,1.66z"/>
   <path class="fil103" d="M1086.97 399.14l-0.54 -0.32c-1.64,-0.95 -2.53,-3.24 -1.97,-5.11 0.56,-1.87 2.34,-2.61 4,-1.66l0.54 0.32c1.64,0.95 2.53,3.24 1.97,5.11 -0.56,1.87 -2.35,2.62 -4,1.66z"/>
  </g>
 </g>
</svg>
