<?xml version="1.0" encoding="UTF-8"?>
<!DOCTYPE svg PUBLIC "-//W3C//DTD SVG 1.1//EN" "http://www.w3.org/Graphics/SVG/1.1/DTD/svg11.dtd">
<!-- Creator: CorelDRAW 2021 (64-Bit) -->
<svg xmlns="http://www.w3.org/2000/svg" xml:space="preserve" width="59px" height="59px" version="1.1" style="shape-rendering:geometricPrecision; text-rendering:geometricPrecision; image-rendering:optimizeQuality; fill-rule:evenodd; clip-rule:evenodd"
viewBox="0 0 59 59"
 xmlns:xlink="http://www.w3.org/1999/xlink"
 xmlns:xodm="http://www.corel.com/coreldraw/odm/2003">
 <defs>
  <style type="text/css">
   <![CDATA[
    .fil2 {fill:none}
    .fil0 {fill:#5C6BC0}
    .fil1 {fill:white}
   ]]>
  </style>
   <clipPath id="id0">
    <path d="M11.54 2.5l34.97 0c5.5,0 9.99,4.49 9.99,9.99l0 34.97c0,5.49 -4.49,9.99 -9.99,9.99l-34.97 0c-5.49,0 -9.99,-4.5 -9.99,-9.99l0 -34.97c0,-5.5 4.5,-9.99 9.99,-9.99z"/>
   </clipPath>
 </defs>
 <g id="Layer_x0020_1">
  <metadata id="CorelCorpID_0Corel-Layer"/>
  <g>
  </g>
  <g style="clip-path:url(#id0)">
   <g>
    <g id="_2210706001840">
     <rect class="fil0" x="1.55" y="2.5" width="54.95" height="54.95"/>
     <path class="fil1" d="M7.42 29.89c0,3.37 0.39,5.61 1.51,8.63 0.4,1.08 0.91,2.01 1.44,2.94 0.65,1.14 1.38,2.18 2.22,3.18 0.73,0.86 1.47,1.48 2.19,2.2 0.2,0.2 0.38,0.32 0.6,0.5 1.28,1.03 2.49,1.83 4,2.59 0.54,0.27 0.91,0.45 1.5,0.69 1.14,0.46 2.83,1.17 2.83,-0.81 0,-5.93 0.44,-2.21 -3.98,-3.45 -3.85,-1.07 -2.97,-4.23 -5.63,-6.02 -0.37,-0.25 -0.9,-0.56 -0.94,-1.08 0.91,-0.61 2.33,0 3.05,0.58 0.66,0.52 1.08,1.31 1.58,1.97 1.24,1.64 3.2,2.15 5.15,1.49 0.11,-0.03 0.52,-0.15 0.64,-0.21 0.3,-0.16 0.22,-0.29 0.28,-0.64 0.25,-1.4 1.09,-2.02 1.2,-2.43 -0.72,0 -1.46,-0.14 -2.14,-0.3 -0.7,-0.16 -1.33,-0.34 -1.95,-0.59 -1.06,-0.42 -1.88,-0.96 -2.73,-1.65 -3.03,-2.44 -3.66,-8.16 -2.28,-11.54 0.25,-0.63 0.62,-1.28 1.06,-1.81 0.71,-0.85 0.36,-0.6 0.17,-1.64 -0.25,-1.29 -0.11,-2.77 0.28,-3.98 0.27,-0.8 0.25,-0.69 1.01,-0.69 1.29,0 2.88,0.86 3.92,1.48 1.79,1.08 0.8,0.73 3.56,0.27 2.29,-0.38 5.12,-0.35 7.34,0.23 1.7,0.43 0.95,0.19 3.58,-1.13 0.85,-0.43 2.15,-0.85 3.29,-0.85 0.55,0 0.85,2.91 0.85,3.29 0,2.44 -0.92,1.9 -0.02,2.98 1.28,1.54 1.79,3.43 1.79,5.55 0,2.9 -0.69,5.45 -2.55,7.49 -0.39,0.43 -0.94,0.81 -1.42,1.12 -0.47,0.31 -1.09,0.64 -1.68,0.85 -1.09,0.4 -2.88,0.92 -4.14,0.92 0.11,0.43 0.92,1.04 1.21,2.41 0.29,1.35 0.14,2.11 0.14,3.33l0 3.88c0,2.84 2.97,0.87 4.28,0.32 1.46,-0.62 3.46,-1.97 4.6,-3.08l2.2 -2.2c1.88,-2.13 3.47,-4.99 4.25,-7.73 1.18,-4.12 1.24,-7.56 0.33,-11.75 -0.27,-1.25 -0.9,-2.91 -1.4,-3.92 -0.93,-1.9 -2.21,-4.05 -3.73,-5.55 -2.09,-2.06 -4.22,-3.85 -6.96,-5.02 -5.13,-2.2 -10.51,-2.54 -15.84,-0.77 -2.78,0.92 -5.42,2.47 -7.55,4.44 -3.01,2.78 -5.6,6.75 -6.48,10.82 -0.33,1.49 -0.63,2.92 -0.63,4.69z"/>
    </g>
   </g>
  </g>
  <path class="fil2" d="M11.54 2.5l34.97 0c5.5,0 9.99,4.49 9.99,9.99l0 34.97c0,5.49 -4.49,9.99 -9.99,9.99l-34.97 0c-5.49,0 -9.99,-4.5 -9.99,-9.99l0 -34.97c0,-5.5 4.5,-9.99 9.99,-9.99z"/>
 </g>
</svg>
