<?xml version="1.0" encoding="UTF-8"?>
<!DOCTYPE svg PUBLIC "-//W3C//DTD SVG 1.1//EN" "http://www.w3.org/Graphics/SVG/1.1/DTD/svg11.dtd">
<!-- Creator: CorelDRAW 2021 (64-Bit) -->
<svg xmlns="http://www.w3.org/2000/svg" xml:space="preserve" width="59px" height="59px" version="1.1" style="shape-rendering:geometricPrecision; text-rendering:geometricPrecision; image-rendering:optimizeQuality; fill-rule:evenodd; clip-rule:evenodd"
viewBox="0 0 59 59"
 xmlns:xlink="http://www.w3.org/1999/xlink"
 xmlns:xodm="http://www.corel.com/coreldraw/odm/2003">
 <defs>
  <style type="text/css">
   <![CDATA[
    .fil2 {fill:none}
    .fil0 {fill:#0084B1}
    .fil1 {fill:#FDFEFE}
   ]]>
  </style>
   <clipPath id="id0">
    <path d="M11.54 2.5l34.97 0c5.5,0 9.99,4.49 9.99,9.99l0 34.97c0,5.49 -4.49,9.99 -9.99,9.99l-34.97 0c-5.49,0 -9.99,-4.5 -9.99,-9.99l0 -34.97c0,-5.5 4.5,-9.99 9.99,-9.99z"/>
   </clipPath>
 </defs>
 <g id="Layer_x0020_1">
  <metadata id="CorelCorpID_0Corel-Layer"/>
  <g>
  </g>
  <g style="clip-path:url(#id0)">
   <g>
    <g id="_2210699852352">
     <path class="fil0" d="M10.5 47.79c-0.17,-2.55 0,-5.76 0,-8.37l0 -12.56c0,-3.82 -0.19,-3.3 5.01,-3.3 1.44,0 2.75,-0.26 2.9,1.26 0.12,1.08 0.02,18.56 0.02,20.93 0,3.89 0.16,3.35 -5.07,3.35 -1.4,0 -2.76,0.2 -2.86,-1.31zm13.04 1.07c-0.15,-0.34 -0.26,-24.13 -0.01,-25.15 0.68,-0.31 2.83,-0.15 3.78,-0.15 4.61,0 3.91,-0.68 3.91,3.29 0.23,-0.1 1.01,-1.48 2.07,-2.28 0.33,-0.24 0.55,-0.39 0.9,-0.6 1.45,-0.89 2.86,-1.08 4.82,-1.07 3.95,0.02 6.32,1.78 7.79,4 1.89,2.84 1.4,6.6 1.4,10.37 0,1.86 0.19,10.77 -0.13,11.73 -0.74,0.2 -7.01,0.21 -7.68,-0.02 -0.33,-0.87 -0.14,-11.72 -0.13,-13.64 0,-1.9 -0.26,-3.61 -2.09,-4.74 -1.72,-1.06 -4.01,-0.72 -5.28,0.44 -1.53,1.39 -1.52,2.9 -1.52,5.37l0 10.3c0,0.53 0.04,1.22 0,1.72 -0.06,0.72 -0.39,0.68 -1.05,0.67 -1.15,0 -2.29,0 -3.44,0 -0.87,0 -2.78,0.21 -3.34,-0.24zm-13.59 -32.52c-0.49,-2.81 1.42,-5.02 3.7,-5.41 2.73,-0.47 4.9,1.43 5.32,3.64 0.52,2.71 -1.4,4.99 -3.6,5.38 -2.75,0.49 -5.04,-1.39 -5.42,-3.61zm-8.4 41.11l54.95 0 0 -54.95 -54.95 0 0 54.95z"/>
     <path class="fil1" d="M23.54 48.86c0.56,0.45 2.47,0.24 3.34,0.24 1.15,0 2.29,0 3.44,0 0.66,0.01 0.99,0.05 1.05,-0.67 0.04,-0.5 0,-1.19 0,-1.72l0 -10.3c0,-2.47 -0.01,-3.98 1.52,-5.37 1.27,-1.16 3.56,-1.5 5.28,-0.44 1.83,1.13 2.09,2.84 2.09,4.74 -0.01,1.92 -0.2,12.77 0.13,13.64 0.67,0.23 6.94,0.22 7.68,0.02 0.32,-0.96 0.13,-9.87 0.13,-11.73 0,-3.77 0.49,-7.53 -1.4,-10.37 -1.47,-2.22 -3.84,-3.98 -7.79,-4 -1.96,-0.01 -3.37,0.18 -4.82,1.07 -0.35,0.21 -0.57,0.36 -0.9,0.6 -1.06,0.8 -1.84,2.18 -2.07,2.28 0,-3.97 0.7,-3.29 -3.91,-3.29 -0.95,0 -3.1,-0.16 -3.78,0.15 -0.25,1.02 -0.14,24.81 0.01,25.15z"/>
     <path class="fil1" d="M10.5 47.79c0.1,1.51 1.46,1.31 2.86,1.31 5.23,0 5.07,0.54 5.07,-3.35 0,-2.37 0.1,-19.85 -0.02,-20.93 -0.15,-1.52 -1.46,-1.26 -2.9,-1.26 -5.2,0 -5.01,-0.52 -5.01,3.3l0 12.56c0,2.61 -0.17,5.82 0,8.37z"/>
     <path class="fil1" d="M9.95 16.34c0.38,2.22 2.67,4.1 5.42,3.61 2.2,-0.39 4.12,-2.67 3.6,-5.38 -0.42,-2.21 -2.59,-4.11 -5.32,-3.64 -2.28,0.39 -4.19,2.6 -3.7,5.41z"/>
    </g>
   </g>
  </g>
  <path class="fil2" d="M11.54 2.5l34.97 0c5.5,0 9.99,4.49 9.99,9.99l0 34.97c0,5.49 -4.49,9.99 -9.99,9.99l-34.97 0c-5.49,0 -9.99,-4.5 -9.99,-9.99l0 -34.97c0,-5.5 4.5,-9.99 9.99,-9.99z"/>
 </g>
</svg>
