<?xml version="1.0" encoding="UTF-8"?>
<!DOCTYPE svg PUBLIC "-//W3C//DTD SVG 1.1//EN" "http://www.w3.org/Graphics/SVG/1.1/DTD/svg11.dtd">
<!-- Creator: CorelDRAW 2021 (64-Bit) -->
<svg xmlns="http://www.w3.org/2000/svg" xml:space="preserve" width="132px" height="144px" version="1.1" style="shape-rendering:geometricPrecision; text-rendering:geometricPrecision; image-rendering:optimizeQuality; fill-rule:evenodd; clip-rule:evenodd"
viewBox="0 0 132 144"
 xmlns:xlink="http://www.w3.org/1999/xlink"
 xmlns:xodm="http://www.corel.com/coreldraw/odm/2003">
 <defs>
  <style type="text/css">
   <![CDATA[
    .fil1 {fill:black;fill-rule:nonzero}
    .fil0 {fill:#F7DF1E;fill-rule:nonzero}
   ]]>
  </style>
 </defs>
 <g id="Layer_x0020_1">
  <metadata id="CorelCorpID_0Corel-Layer"/>
  <g id="_1637564317952">
   <g>
    <polygon class="fil0" points="0,6 132,6 132,138 0,138 "/>
    <g>
     <path class="fil1" d="M34.71 116.31l10.1 -6.11c1.95,3.45 3.72,6.38 7.97,6.38 4.08,0 6.65,-1.6 6.65,-7.8l0 -42.18 12.4 0 0 42.35c0,12.85 -7.53,18.7 -18.51,18.7 -9.93,0 -15.69,-5.14 -18.61,-11.34l0 0zm0 0l0 0 0 0z"/>
    </g>
    <g>
     <path class="fil1" d="M78.57 114.98l10.1 -5.85c2.66,4.34 6.12,7.53 12.23,7.53 5.14,0 8.42,-2.57 8.42,-6.11 0,-4.25 -3.37,-5.76 -9.04,-8.24l-3.1 -1.33c-8.95,-3.81 -14.89,-8.59 -14.89,-18.7 0,-9.3 7.09,-16.39 18.17,-16.39 7.88,0 13.56,2.75 17.63,9.93l-9.66 6.2c-2.12,-3.81 -4.43,-5.32 -7.97,-5.32 -3.63,0 -5.94,2.31 -5.94,5.32 0,3.72 2.31,5.23 7.62,7.53l3.1 1.33c10.55,4.52 16.48,9.13 16.48,19.49 0,11.17 -8.77,17.28 -20.55,17.28 -11.52,0 -18.96,-5.49 -22.6,-12.67l0 0zm0 0l0 0 0 0z"/>
    </g>
   </g>
  </g>
 </g>
</svg>
