<?xml version="1.0" encoding="UTF-8"?>
<!DOCTYPE svg PUBLIC "-//W3C//DTD SVG 1.1//EN" "http://www.w3.org/Graphics/SVG/1.1/DTD/svg11.dtd">
<!-- Creator: CorelDRAW 2021 (64-Bit) -->
<svg xmlns="http://www.w3.org/2000/svg" xml:space="preserve" width="132px" height="144px" version="1.1" style="shape-rendering:geometricPrecision; text-rendering:geometricPrecision; image-rendering:optimizeQuality; fill-rule:evenodd; clip-rule:evenodd"
viewBox="0 0 132 144"
 xmlns:xlink="http://www.w3.org/1999/xlink"
 xmlns:xodm="http://www.corel.com/coreldraw/odm/2003">
 <defs>
  <style type="text/css">
   <![CDATA[
    .fil3 {fill:#FEFEFE;fill-rule:nonzero}
    .fil2 {fill:#EAEAEA;fill-rule:nonzero}
    .fil1 {fill:#506DB2;fill-rule:nonzero}
    .fil0 {fill:#4E63AC;fill-rule:nonzero}
   ]]>
  </style>
 </defs>
 <g id="Layer_x0020_1">
  <metadata id="CorelCorpID_0Corel-Layer"/>
  <g id="_1637341245056">
   <polygon class="fil0" points="65.92,143.77 14.23,129.42 2.71,0.23 129.29,0.23 117.76,129.4 65.92,143.77 "/>
   <polygon class="fil1" points="107.88,121.18 117.74,10.79 66,10.79 66,132.79 107.88,121.18 "/>
   <path class="fil2" d="M66 99.86l-0.07 0.02 -17.65 -4.77 -1.12 -12.63 -15.91 0 2.22 24.88 32.46 9.01 0.07 -0.02 0 -16.49zm-39.73 -73.22l1.44 15.84 38.29 0 0 -15.84 -39.73 0 0 0zm2.85 32.07l1.42 15.84 35.46 0 0 -15.84 -36.88 0z"/>
   <polygon class="fil3" points="102.78,58.71 105.64,26.64 65.95,26.64 65.95,42.48 88.27,42.48 86.83,58.71 65.95,58.71 65.95,74.55 85.46,74.55 83.62,95.1 65.95,99.87 65.95,116.36 98.43,107.36 98.67,104.68 102.39,62.96 102.78,58.71 "/>
  </g>
 </g>
</svg>
