<?xml version="1.0" encoding="UTF-8"?>
<!DOCTYPE svg PUBLIC "-//W3C//DTD SVG 1.1//EN" "http://www.w3.org/Graphics/SVG/1.1/DTD/svg11.dtd">
<!-- Creator: CorelDRAW 2021 (64-Bit) -->
<svg xmlns="http://www.w3.org/2000/svg" xml:space="preserve" width="132px" height="144px" version="1.1" style="shape-rendering:geometricPrecision; text-rendering:geometricPrecision; image-rendering:optimizeQuality; fill-rule:evenodd; clip-rule:evenodd"
viewBox="0 0 132 144"
 xmlns:xlink="http://www.w3.org/1999/xlink"
 xmlns:xodm="http://www.corel.com/coreldraw/odm/2003">
 <defs>
  <style type="text/css">
   <![CDATA[
    .fil3 {fill:#FEFEFE;fill-rule:nonzero}
    .fil1 {fill:#F26B3A;fill-rule:nonzero}
    .fil0 {fill:#E55638;fill-rule:nonzero}
    .fil2 {fill:#EAEAEA;fill-rule:nonzero}
   ]]>
  </style>
 </defs>
 <g id="Layer_x0020_1">
  <metadata id="CorelCorpID_0Corel-Layer"/>
  <g id="_1637779078240">
   <polygon class="fil0" points="14.54,129.21 3.09,0.79 128.91,0.79 117.45,129.19 65.92,143.47 "/>
   <polygon class="fil1" points="66,132.56 107.63,121.01 117.43,11.29 66,11.29 "/>
   <polygon class="fil2" points="66,58.92 45.16,58.92 43.72,42.79 66,42.79 66,27.04 26.5,27.04 26.88,31.26 30.75,74.67 66,74.67 "/>
   <polygon class="fil2" points="66,99.82 65.93,99.84 48.39,95.11 47.27,82.54 31.46,82.54 33.66,107.27 65.93,116.23 66,116.21 "/>
   <polygon class="fil3" points="65.95,58.92 65.95,74.67 85.34,74.67 83.51,95.1 65.95,99.84 65.95,116.22 98.24,107.27 98.47,104.61 102.17,63.15 102.56,58.92 "/>
   <polygon class="fil3" points="65.95,27.04 65.95,42.79 103.94,42.79 103.99,42.79 104.31,39.25 105.02,31.26 105.4,27.04 "/>
  </g>
 </g>
</svg>
