<?xml version="1.0" encoding="UTF-8"?>
<!DOCTYPE svg PUBLIC "-//W3C//DTD SVG 1.1//EN" "http://www.w3.org/Graphics/SVG/1.1/DTD/svg11.dtd">
<!-- Creator: CorelDRAW 2021 (64-Bit) -->
<svg xmlns="http://www.w3.org/2000/svg" xml:space="preserve" width="59px" height="59px" version="1.1" style="shape-rendering:geometricPrecision; text-rendering:geometricPrecision; image-rendering:optimizeQuality; fill-rule:evenodd; clip-rule:evenodd"
viewBox="0 0 59 59"
 xmlns:xlink="http://www.w3.org/1999/xlink"
 xmlns:xodm="http://www.corel.com/coreldraw/odm/2003">
 <defs>
  <style type="text/css">
   <![CDATA[
    .fil2 {fill:none}
    .fil0 {fill:#1BD741}
    .fil1 {fill:#FEFFFE}
   ]]>
  </style>
   <clipPath id="id0">
    <path d="M11.54 2.5l34.97 0c5.5,0 9.99,4.49 9.99,9.99l0 34.97c0,5.49 -4.49,9.99 -9.99,9.99l-34.97 0c-5.49,0 -9.99,-4.5 -9.99,-9.99l0 -34.97c0,-5.5 4.5,-9.99 9.99,-9.99z"/>
   </clipPath>
 </defs>
 <g id="Layer_x0020_1">
  <metadata id="CorelCorpID_0Corel-Layer"/>
  <g>
  </g>
  <g style="clip-path:url(#id0)">
   <g>
    <g id="_2211167907984">
     <path class="fil0" d="M9.83 49.18c0.59,-2.59 1.53,-5.43 2.25,-8.04 0.21,-0.76 0.54,-1.27 0.2,-1.93 -1.03,-1.99 -1.58,-3.13 -2.05,-5.57 -1.39,-7.06 1.26,-12.99 5.15,-17.2l1.35 -1.23c0.72,-0.63 2.18,-1.59 3.07,-2.09 2.03,-1.15 5.09,-2.17 7.83,-2.31 6.13,-0.33 10.73,1.58 14.87,5.47 3.13,2.94 6.02,8.32 5.69,14.68 -0.41,8.06 -5.85,14.89 -13.44,17.29 -4.27,1.34 -8.91,1.09 -13.08,-0.61 -2.08,-0.86 -1.25,-1.18 -3.72,-0.52l-8.12 2.06zm-8.28 8.27l54.95 0 0 -54.95 -54.95 0 0 54.95z"/>
     <path class="fil0" d="M21.84 21.03c0.57,-0.2 1.91,-0.18 2.28,0.22 0.17,0.2 0.65,1.41 0.8,1.78 1.07,2.5 1.48,2.67 0.65,3.7 -1.24,1.53 -2.1,1.36 0.08,3.94 0.22,0.26 0.31,0.46 0.57,0.72 1.2,1.25 2.99,2.43 4.72,3.12 0.9,0.35 1.03,-0.22 1.5,-0.8 1.55,-1.96 1.02,-1.89 3.05,-0.97 0.93,0.42 3.23,1.25 3.32,1.85 0.22,1.57 -1.72,6.18 -7.88,3.79 -1.44,-0.56 -2.35,-1.03 -3.51,-1.75 -1.04,-0.65 -2.1,-1.46 -2.89,-2.26 -1.36,-1.37 -1.23,-1.12 -2.52,-2.75 -1.57,-2 -3.25,-4.91 -2.47,-7.7 0.3,-1.08 1.48,-2.59 2.3,-2.89zm-7.32 23.58c1.12,-0.21 2.27,-0.55 3.4,-0.85 2.4,-0.64 2.01,-0.71 3.09,-0.08 5.13,2.97 11.32,2.89 16.37,-0.2 7.89,-4.83 9.96,-15.58 4.71,-22.7 -1.2,-1.63 -2.47,-2.93 -4.19,-4.09 -11.27,-7.59 -26.54,1.77 -24.62,15.5 0.76,5.44 3.04,5.98 2.58,7.58 -0.39,1.35 -1.11,3.63 -1.34,4.84z"/>
     <path class="fil1" d="M14.52 44.61c0.23,-1.21 0.95,-3.49 1.34,-4.84 0.46,-1.6 -1.82,-2.14 -2.58,-7.58 -1.92,-13.73 13.35,-23.09 24.62,-15.5 1.72,1.16 2.99,2.46 4.19,4.09 5.25,7.12 3.18,17.87 -4.71,22.7 -5.05,3.09 -11.24,3.17 -16.37,0.2 -1.08,-0.63 -0.69,-0.56 -3.09,0.08 -1.13,0.3 -2.28,0.64 -3.4,0.85zm-4.69 4.57l8.12 -2.06c2.47,-0.66 1.64,-0.34 3.72,0.52 4.17,1.7 8.81,1.95 13.08,0.61 7.59,-2.4 13.03,-9.23 13.44,-17.29 0.33,-6.36 -2.56,-11.74 -5.69,-14.68 -4.14,-3.89 -8.74,-5.8 -14.87,-5.47 -2.74,0.14 -5.8,1.16 -7.83,2.31 -0.89,0.5 -2.35,1.46 -3.07,2.09l-1.35 1.23c-3.89,4.21 -6.54,10.14 -5.15,17.2 0.47,2.44 1.02,3.58 2.05,5.57 0.34,0.66 0.01,1.17 -0.2,1.93 -0.72,2.61 -1.66,5.45 -2.25,8.04z"/>
     <path class="fil1" d="M21.84 21.03c-0.82,0.3 -2,1.81 -2.3,2.89 -0.78,2.79 0.9,5.7 2.47,7.7 1.29,1.63 1.16,1.38 2.52,2.75 0.79,0.8 1.85,1.61 2.89,2.26 1.16,0.72 2.07,1.19 3.51,1.75 6.16,2.39 8.1,-2.22 7.88,-3.79 -0.09,-0.6 -2.39,-1.43 -3.32,-1.85 -2.03,-0.92 -1.5,-0.99 -3.05,0.97 -0.47,0.58 -0.6,1.15 -1.5,0.8 -1.73,-0.69 -3.52,-1.87 -4.72,-3.12 -0.26,-0.26 -0.35,-0.46 -0.57,-0.72 -2.18,-2.58 -1.32,-2.41 -0.08,-3.94 0.83,-1.03 0.42,-1.2 -0.65,-3.7 -0.15,-0.37 -0.63,-1.58 -0.8,-1.78 -0.37,-0.4 -1.71,-0.42 -2.28,-0.22z"/>
    </g>
   </g>
  </g>
  <path class="fil2" d="M11.54 2.5l34.97 0c5.5,0 9.99,4.49 9.99,9.99l0 34.97c0,5.49 -4.49,9.99 -9.99,9.99l-34.97 0c-5.49,0 -9.99,-4.5 -9.99,-9.99l0 -34.97c0,-5.5 4.5,-9.99 9.99,-9.99z"/>
 </g>
</svg>
